<svg xmlns="http://www.w3.org/2000/svg" width="426" height="426" viewBox="0 0 426 426" version="1.1"><path d="M 213.032 21.357 C 213.010 22.625, 212.504 23.024, 211.437 22.614 C 210.577 22.284, 208.499 22.725, 206.820 23.593 C 205.140 24.462, 202.919 24.951, 201.883 24.680 C 200.415 24.296, 200 24.731, 200 26.653 C 200 28.146, 199.579 28.858, 198.932 28.458 C 198.344 28.095, 198.094 27.198, 198.375 26.465 C 198.697 25.625, 198.196 25.185, 197.019 25.274 C 195.572 25.383, 195.359 25.803, 196.076 27.141 C 197.575 29.943, 197.172 31.278, 194.999 30.710 C 193.898 30.422, 193.224 30.554, 193.502 31.003 C 194.248 32.210, 192.963 34.995, 191.643 35.032 C 190.155 35.073, 185 39.615, 185 40.885 C 185 41.424, 184.088 42.155, 182.973 42.508 C 181.859 42.862, 180.232 44.243, 179.358 45.576 C 178.242 47.280, 176.839 48.005, 174.635 48.015 C 172.226 48.027, 171.847 48.259, 173 49.015 C 174.305 49.872, 174.312 50.121, 173.048 50.934 C 172.249 51.448, 171.124 51.586, 170.548 51.242 C 169.971 50.898, 170.126 51.388, 170.891 52.331 C 172.091 53.809, 172.079 53.967, 170.802 53.477 C 169.987 53.165, 168.747 53.600, 168.047 54.443 C 167.346 55.287, 166.405 55.751, 165.956 55.473 C 164.987 54.874, 163.672 56.764, 163.273 59.327 C 163.117 60.332, 162.317 61.826, 161.495 62.648 C 160.168 63.974, 160 63.958, 160 62.500 C 160 61.006, 159.857 61, 158.429 62.429 C 157.564 63.293, 156.383 64, 155.804 64 C 155.162 64, 154.989 65.194, 155.360 67.050 C 155.762 69.061, 155.612 69.878, 154.918 69.449 C 154.340 69.092, 153.999 69.407, 154.162 70.150 C 154.525 71.811, 151.028 76, 149.278 76 C 148.575 76, 148 76.620, 148 77.378 C 148 79.221, 145.645 81.076, 143.055 81.271 C 141.656 81.376, 141.138 81.917, 141.509 82.885 C 141.816 83.685, 141.705 84.601, 141.261 84.920 C 140.817 85.239, 139.621 86.807, 138.603 88.404 C 136.948 91.001, 136.649 91.124, 135.778 89.567 C 134.905 88.008, 134.657 88.108, 133.407 90.517 C 132.639 91.997, 132.291 93.662, 132.633 94.216 C 133.475 95.578, 130.902 97.079, 128.831 96.435 C 127.746 96.098, 126.934 96.632, 126.513 97.958 C 126.157 99.081, 125.255 100, 124.509 100 C 123.763 100, 121.881 102.715, 120.326 106.033 C 117.948 111.108, 117.148 112.004, 115.280 111.677 C 114.059 111.464, 113.315 111.701, 113.627 112.205 C 113.938 112.709, 113.630 114.478, 112.943 116.137 C 112.061 118.267, 111.173 119.017, 109.922 118.690 C 108.714 118.374, 108.319 118.669, 108.683 119.616 C 109.496 121.736, 104.939 125.087, 102.120 124.442 C 100.035 123.964, 99.815 124.182, 100.342 126.198 C 100.674 127.464, 100.395 129.767, 99.722 131.316 C 98.698 133.675, 98.054 134.044, 95.750 133.591 C 93.011 133.052, 91.872 134.378, 94.250 135.338 C 94.938 135.615, 94.487 135.878, 93.250 135.921 C 91.420 135.985, 90.978 136.607, 90.882 139.250 C 90.816 141.037, 90.828 142.871, 90.906 143.324 C 90.985 143.778, 90.588 143.864, 90.025 143.515 C 89.461 143.167, 89 143.584, 89 144.441 C 89 145.454, 88.088 146, 86.393 146 C 84.600 146, 83.950 146.427, 84.310 147.366 C 84.662 148.284, 83.538 149.122, 80.889 149.915 C 78.718 150.566, 77.194 151.505, 77.502 152.003 C 78.640 153.845, 76.690 158.167, 74.313 159.071 C 72.975 159.580, 72.156 160.444, 72.494 160.990 C 73.272 162.250, 71.893 164.469, 70.250 164.600 C 69.563 164.655, 68.100 164.767, 67 164.850 C 65.692 164.948, 65 165.717, 65 167.071 C 65 169.703, 62.396 172.564, 61.659 170.741 C 61.298 169.847, 61.136 169.832, 61.079 170.685 C 61.036 171.337, 60.480 173.137, 59.844 174.685 C 59.208 176.233, 58.786 178.287, 58.907 179.250 C 59.065 180.518, 58.421 181, 56.563 181 C 54.927 181, 54 181.554, 54 182.532 C 54 183.375, 52.987 184.471, 51.750 184.969 C 50.512 185.466, 50.063 185.902, 50.750 185.937 C 51.438 185.971, 52 186.450, 52 187 C 52 187.550, 51.604 187.888, 51.120 187.750 C 49.571 187.309, 44.557 193.431, 44.869 195.383 C 45.114 196.912, 44.690 197.174, 42.616 196.777 C 41.210 196.509, 40.276 196.638, 40.539 197.064 C 40.803 197.490, 40.227 198.630, 39.259 199.598 C 38.292 200.566, 37.500 201.625, 37.500 201.952 C 37.500 203.248, 29.591 211, 28.268 211 C 27.492 211, 26.182 211.675, 25.357 212.500 C 24.460 213.397, 24.311 214, 24.988 214 C 25.609 214, 25.866 214.408, 25.558 214.906 C 25.250 215.404, 24.098 215.577, 22.999 215.289 C 21.882 214.997, 21 215.259, 21 215.883 C 21 216.498, 21.482 217, 22.071 217 C 22.661 217, 22.436 217.707, 21.571 218.571 C 20.707 219.436, 20 220.543, 20 221.031 C 20 222.507, 14.636 227, 12.874 227 C 11.026 227, 9.595 233.078, 11.201 234.105 C 11.730 234.442, 11.384 235.473, 10.418 236.439 C 8.779 238.079, 8.831 238.291, 11.428 240.523 C 13.587 242.378, 13.958 243.252, 13.178 244.647 C 12.442 245.962, 12.608 246.724, 13.825 247.614 C 15.208 248.625, 15.039 248.730, 12.731 248.289 C 11.075 247.972, 10 248.206, 10 248.883 C 10 249.498, 10.450 250, 11 250 C 11.550 250, 12 250.675, 12 251.500 C 12 253.112, 13.181 253.326, 16.771 252.364 C 18.567 251.883, 18.803 251.467, 17.899 250.378 C 16.987 249.279, 17.197 249, 18.937 249 C 20.136 249, 20.840 249.450, 20.500 250 C 20.138 250.586, 21.192 251, 23.048 251 C 25.353 251, 26.068 251.381, 25.676 252.402 C 24.678 255.004, 26.284 254.985, 28.711 252.367 L 31.122 249.766 33.603 252.097 C 35.697 254.064, 36.389 254.238, 38.029 253.214 C 40.707 251.541, 44.944 251.690, 45.631 253.482 C 46.069 254.623, 46.651 254.722, 48.165 253.912 C 52.688 251.491, 58.471 252.610, 57.293 255.678 C 56.993 256.460, 57.493 257, 58.515 257 C 59.837 257, 59.986 257.312, 59.146 258.324 C 58.458 259.153, 58.400 260, 58.991 260.591 C 60.406 262.006, 59.048 265.850, 56.892 266.534 C 55.851 266.865, 55 267.581, 55 268.126 C 55 268.672, 55.403 268.869, 55.895 268.565 C 56.388 268.260, 57.046 268.679, 57.359 269.494 C 57.672 270.309, 57.438 270.869, 56.839 270.738 C 56.240 270.607, 55.520 271.134, 55.239 271.909 C 54.884 272.886, 55.229 273.126, 56.364 272.691 C 58.092 272.028, 58.391 272.817, 57.395 275.412 C 57.063 276.279, 56.388 276.740, 55.895 276.435 C 55.403 276.131, 55 276.310, 55 276.834 C 55 277.358, 55.653 278.037, 56.452 278.343 C 57.279 278.660, 57.734 279.784, 57.510 280.950 C 57.292 282.078, 57.534 283, 58.047 283 C 59.339 283, 58.354 294.869, 56.918 296.599 C 56.278 297.370, 56.148 298.007, 56.628 298.015 C 57.107 298.024, 56.825 298.467, 56 299 C 54.910 299.704, 54.858 299.974, 55.809 299.985 C 56.529 299.993, 56.869 300.403, 56.565 300.895 C 56.260 301.388, 56.621 302.024, 57.367 302.311 C 59.008 302.940, 60.235 307, 58.784 307 C 58.175 307, 58.263 307.612, 59 308.500 C 60.020 309.729, 59.951 310, 58.622 310 C 57.730 310, 57 310.675, 57 311.500 C 57 312.325, 57.647 313, 58.438 313 C 60.214 313, 60.106 317.090, 58.293 318.500 C 57.309 319.265, 57.251 320.378, 58.046 323.235 C 58.763 325.812, 58.765 327.571, 58.051 328.905 C 57.295 330.317, 57.351 330.974, 58.258 331.340 C 59.242 331.738, 59.240 331.859, 58.250 331.921 C 57.563 331.964, 57 332.873, 57 333.941 C 57 335.009, 56.528 336.174, 55.951 336.530 C 55.229 336.976, 55.252 337.599, 56.026 338.531 C 56.670 339.308, 56.946 341.824, 56.674 344.442 C 56.412 346.949, 56.604 349, 57.099 349 C 57.595 349, 58 349.637, 58 350.417 C 58 351.196, 58.563 352.060, 59.250 352.338 C 59.997 352.639, 59.795 352.874, 58.750 352.921 C 56.622 353.017, 56.384 355, 58.500 355 C 60.567 355, 60.382 356.744, 58.170 358.126 C 56.569 359.126, 56.467 359.827, 57.357 363.719 C 58.099 366.959, 58.056 368.681, 57.200 370.051 C 55.885 372.157, 57.163 377, 59.034 377 C 59.651 377, 59.782 377.539, 59.337 378.250 C 57.907 380.539, 58.187 381.764, 60.031 381.282 C 61.309 380.947, 62.324 381.725, 63.450 383.903 C 64.351 385.645, 64.603 387, 64.026 387 C 63.462 387, 63 387.450, 63 388 C 63 388.550, 63.930 389, 65.067 389 C 66.680 389, 66.995 389.440, 66.500 391 C 66.136 392.147, 66.320 393, 66.933 393 C 67.520 393, 68 392.550, 68 392 C 68 390.219, 69.998 390.943, 70.070 392.750 C 70.128 394.198, 70.258 394.238, 70.820 392.984 C 71.612 391.219, 75.317 391.189, 77.415 392.930 C 80.139 395.190, 85.912 395.214, 88.756 392.977 C 91.012 391.202, 91.491 391.126, 92.217 392.423 C 92.847 393.549, 93.661 393.699, 95.447 393.020 C 96.761 392.521, 98.660 392.155, 99.668 392.207 C 100.676 392.260, 104.987 391.957, 109.250 391.534 C 115.863 390.878, 117 390.989, 117 392.289 C 117 394.006, 120.946 393.479, 122.250 391.588 C 122.743 390.873, 123.257 390.843, 123.750 391.500 C 124.670 392.726, 137.001 392.845, 137 391.628 C 137 391.148, 137.563 391.175, 138.250 391.689 C 139.730 392.794, 140.561 392.721, 144.362 391.148 C 147.983 389.650, 149.977 389.981, 152.517 392.500 C 154.551 394.517, 160 395.616, 160 394.010 C 160 393.533, 160.722 392.420, 161.605 391.537 C 163.291 389.852, 166.852 390.306, 168.250 392.385 C 168.787 393.183, 169.236 393.135, 169.830 392.216 C 170.287 391.510, 171.411 391.220, 172.330 391.573 C 173.270 391.934, 174 391.730, 174 391.107 C 174 389.145, 176.663 389.930, 177.671 392.189 C 178.336 393.680, 178.883 393.999, 179.383 393.189 C 179.787 392.535, 179.641 392, 179.059 392 C 178.477 392, 178 391.516, 178 390.925 C 178 390.333, 179.238 389.954, 180.750 390.083 C 182.262 390.211, 184.625 389.832, 186 389.239 C 187.375 388.647, 189.400 387.849, 190.500 387.465 C 191.739 387.033, 192.028 386.591, 191.259 386.303 C 190.328 385.955, 190.398 385.459, 191.543 384.314 C 192.623 383.234, 192.767 382.424, 192.036 381.543 C 190.781 380.031, 190.473 376.101, 191.433 373.851 C 191.820 372.944, 191.656 371.905, 191.068 371.542 C 190.481 371.179, 190 369.731, 190 368.324 C 190 366.259, 190.385 365.867, 192 366.290 C 193.100 366.577, 194 366.363, 194 365.813 C 194 365.263, 193.178 364.598, 192.172 364.335 C 190.105 363.794, 189.927 360.281, 191.904 359.059 C 192.843 358.479, 192.697 358.096, 191.334 357.568 C 189.563 356.881, 189.564 356.810, 191.371 355.480 C 192.854 354.388, 193.104 353.366, 192.576 350.551 C 192.150 348.283, 191.345 347, 190.348 347 C 189.370 347, 189.001 346.439, 189.362 345.500 C 189.678 344.675, 189.564 344, 189.107 344 C 188.080 344, 188.924 339.165, 190.076 338.453 C 190.536 338.169, 190.659 337.275, 190.349 336.468 C 190.040 335.661, 190.332 335, 191 335 C 191.693 335, 191.955 334.325, 191.611 333.428 C 191.279 332.563, 191.471 330.988, 192.039 329.928 C 192.606 328.867, 192.713 328, 192.276 328 C 191.839 328, 190.878 327.035, 190.142 325.855 C 188.983 323.999, 189.007 323.789, 190.324 324.294 C 191.374 324.697, 192.165 323.965, 192.871 321.939 C 193.555 319.978, 193.561 319, 192.889 319 C 192.335 319, 192.202 318.482, 192.594 317.848 C 192.985 317.215, 192.476 316.090, 191.462 315.348 C 189.709 314.067, 189.706 314, 191.417 314 C 192.837 314, 193.085 313.473, 192.589 311.500 C 192.207 309.978, 192.389 309, 193.052 309 C 193.652 309, 193.402 308.260, 192.498 307.355 C 191.593 306.450, 191.256 305.437, 191.749 305.105 C 192.242 304.772, 192.934 303.720, 193.285 302.767 C 193.693 301.661, 194.518 301.261, 195.563 301.663 C 196.486 302.017, 197.581 301.681, 198.070 300.896 C 198.802 299.721, 199.281 299.712, 201.104 300.842 C 202.294 301.580, 203.545 301.794, 203.884 301.317 C 204.636 300.257, 209.032 300.277, 210.757 301.347 C 211.502 301.809, 212.230 301.563, 212.545 300.742 C 212.884 299.859, 214.108 299.509, 215.924 299.775 C 217.489 300.005, 219.695 299.699, 220.824 299.094 C 222.107 298.407, 223.101 298.355, 223.471 298.954 C 223.797 299.481, 224.797 299.631, 225.693 299.288 C 226.986 298.791, 227.200 299.125, 226.734 300.910 C 226.297 302.579, 226.509 303.018, 227.558 302.616 C 228.343 302.315, 229.430 302.935, 230.008 304.014 C 230.834 305.558, 230.648 306.203, 229.098 307.171 C 227.396 308.234, 227.307 308.711, 228.392 310.944 C 230.233 314.732, 229.727 320.419, 227.510 320.851 C 226.068 321.133, 225.986 321.373, 227.096 322.060 C 228.179 322.729, 228.219 323.181, 227.276 324.124 C 226.334 325.066, 226.445 325.616, 227.785 326.633 C 228.797 327.402, 229 327.949, 228.281 327.968 C 227.611 327.986, 227.320 328.671, 227.635 329.492 C 227.955 330.325, 227.536 331.241, 226.685 331.567 C 225.404 332.059, 225.546 332.716, 227.582 335.715 C 228.912 337.675, 229.986 340.004, 229.970 340.890 C 229.943 342.283, 229.802 342.265, 228.920 340.750 C 228.359 339.788, 227.446 339, 226.891 339 C 226.336 339, 226.172 339.470, 226.527 340.044 C 226.882 340.618, 226.653 341.713, 226.019 342.477 C 225.109 343.573, 225.386 344.206, 227.327 345.479 C 228.930 346.529, 229.621 347.734, 229.307 348.933 C 229.042 349.946, 229.315 351.077, 229.913 351.446 C 230.511 351.816, 231 352.593, 231 353.174 C 231 353.780, 230.006 353.579, 228.667 352.701 C 226.406 351.220, 226.333 351.263, 226.333 354.086 C 226.333 355.689, 226.708 357, 227.167 357 C 227.625 357, 228 358.070, 228 359.378 C 228 360.685, 228.685 362.324, 229.523 363.019 C 230.882 364.147, 230.883 364.529, 229.534 366.589 C 228.703 367.857, 228.293 369.600, 228.623 370.460 C 228.953 371.321, 228.668 372.695, 227.989 373.513 C 226.987 374.720, 227.047 375, 228.308 375 C 229.578 375, 229.694 375.580, 228.946 378.189 C 228.251 380.611, 228.394 381.778, 229.539 383.043 C 230.400 383.995, 230.930 386.119, 230.774 387.996 C 230.599 390.098, 231.001 391.458, 231.889 391.771 C 232.661 392.042, 232.999 391.808, 232.651 391.244 C 232.306 390.686, 233.143 390.015, 234.512 389.753 C 235.880 389.491, 237 389.665, 237 390.139 C 237 390.612, 236.598 391, 236.107 391 C 234.222 391, 234.191 393.817, 236.071 394.308 C 237.133 394.586, 237.749 394.402, 237.438 393.900 C 236.568 392.492, 239.618 391.725, 241.686 392.832 C 242.972 393.520, 244.053 393.434, 245.265 392.548 C 247.181 391.147, 252.081 391.670, 253.235 393.399 C 253.697 394.092, 253.975 393.891, 253.985 392.857 C 254.007 390.469, 257.022 389.648, 258.475 391.634 C 260.231 394.037, 266.133 394.232, 268 391.949 C 269.244 390.429, 271.340 390.049, 280.268 389.727 C 288.455 389.431, 291.523 389.678, 293.065 390.758 C 294.180 391.539, 295.747 391.927, 296.546 391.621 C 297.346 391.314, 298 391.423, 298 391.864 C 298 392.815, 301.050 392.705, 302.682 391.696 C 303.313 391.307, 304.001 391.502, 304.210 392.131 C 304.548 393.143, 307.046 392.258, 315.355 388.183 C 315.825 387.952, 315.908 388.714, 315.540 389.875 C 315.016 391.524, 315.212 391.856, 316.435 391.387 C 317.296 391.056, 318 390.329, 318 389.771 C 318 389.144, 318.525 389.191, 319.373 389.895 C 320.129 390.522, 321.479 390.754, 322.373 390.410 C 323.268 390.067, 324 390.247, 324 390.810 C 324 391.373, 323.437 392.060, 322.750 392.338 C 322.063 392.615, 322.486 392.878, 323.691 392.921 C 324.896 392.964, 326.181 393.484, 326.546 394.075 C 326.973 394.765, 328.052 394.361, 329.555 392.949 C 330.844 391.738, 332.541 390.994, 333.327 391.295 C 334.113 391.597, 335.327 391.316, 336.025 390.672 C 337.026 389.748, 337.155 389.894, 336.636 391.361 C 336.075 392.947, 336.352 393.129, 338.509 392.587 C 339.902 392.238, 341.854 392.387, 342.847 392.918 C 344.832 393.980, 346.356 392.678, 348.925 387.724 C 349.944 385.760, 350.871 385.142, 352.175 385.556 C 353.179 385.874, 354.056 385.654, 354.125 385.067 C 354.425 382.509, 354.536 382.130, 355.181 381.486 C 355.556 381.111, 355.620 380.173, 355.324 379.402 C 355.028 378.631, 355.254 378, 355.826 378 C 356.397 378, 357.202 376.988, 357.614 375.750 C 358.351 373.535, 358.490 372.683, 358.829 368.281 C 358.947 366.746, 359.465 366.241, 360.511 366.643 C 361.619 367.068, 361.847 366.766, 361.366 365.510 C 360.995 364.546, 361.265 363.454, 361.982 363.011 C 363.504 362.070, 362.466 360, 360.472 360 C 359.658 360, 359.296 359.393, 359.614 358.563 C 359.917 357.773, 360.746 357.349, 361.455 357.621 C 363.173 358.280, 362.220 353.077, 360.265 351.122 C 359.488 350.345, 359.223 349.437, 359.676 349.105 C 360.129 348.772, 360.597 347.150, 360.715 345.500 C 361.125 339.793, 361.503 338.001, 362.300 338.001 C 362.740 338, 362.686 337.261, 362.180 336.358 C 361.675 335.455, 361.480 333.880, 361.747 332.858 C 362.029 331.783, 361.709 331, 360.989 331 C 360.099 331, 359.882 329.578, 360.226 326 C 360.490 323.250, 360.322 321, 359.853 321 C 358.389 321, 358.921 316.222, 360.568 314.574 C 361.540 313.603, 361.889 312.226, 361.486 310.955 C 361.128 309.827, 361.344 308.291, 361.966 307.541 C 362.706 306.649, 362.750 305.963, 362.092 305.557 C 361.540 305.215, 361.341 304.275, 361.651 303.468 C 361.960 302.661, 361.716 302, 361.107 302 C 359.617 302, 359.692 295.708, 361.200 294.200 C 362.133 293.267, 362.118 293, 361.133 293 C 360.297 293, 360.094 292.279, 360.538 290.881 C 360.908 289.715, 361.315 285.712, 361.442 281.984 C 361.632 276.420, 361.349 274.973, 359.864 273.902 C 358.185 272.692, 358.173 272.467, 359.688 270.793 C 360.586 269.800, 361.032 268.699, 360.679 268.345 C 360.325 267.992, 361.041 266.800, 362.268 265.696 C 364.041 264.101, 364.127 263.822, 362.685 264.338 C 361.225 264.860, 360.991 264.603, 361.491 263.028 C 361.833 261.950, 361.702 259.581, 361.200 257.762 C 360.251 254.325, 360.611 253.637, 364.530 251.407 C 365.797 250.685, 367.790 250.615, 370.390 251.199 C 373.275 251.847, 374.538 251.747, 375.108 250.826 C 375.643 249.960, 376.247 250.493, 377.046 252.534 C 378.178 255.429, 378.226 255.447, 379.064 253.267 C 379.792 251.374, 380.422 251.131, 383.211 251.672 C 385.020 252.022, 386.860 252.914, 387.300 253.654 C 388.531 255.726, 389.991 255.251, 390.079 252.750 C 390.122 251.512, 390.385 251.063, 390.662 251.750 C 391.503 253.833, 393.182 253.147, 392.500 250.999 C 391.920 249.173, 392.108 249.090, 394.650 250.057 C 396.181 250.639, 398.065 251.639, 398.835 252.278 C 399.947 253.201, 400.684 252.880, 402.406 250.721 C 404.773 247.752, 405.992 247.392, 407.743 249.143 C 409.261 250.661, 415.176 251.083, 416.750 249.785 C 417.438 249.219, 418 247.933, 418 246.927 C 418 245.922, 418.745 244.683, 419.654 244.173 C 420.632 243.627, 421.059 242.597, 420.699 241.658 C 420.199 240.355, 420.622 240.174, 423.044 240.659 C 426.646 241.379, 426.941 240.308, 423.500 239 C 421.987 238.425, 421 237.262, 421 236.056 C 421 234.735, 421.484 234.249, 422.436 234.614 C 423.569 235.049, 423.714 234.579, 423.126 232.381 C 422.594 230.391, 421.503 229.369, 419.302 228.799 C 416.801 228.150, 416.099 227.340, 415.563 224.483 C 415.200 222.549, 415.145 220.574, 415.441 220.096 C 415.736 219.617, 415.421 219.246, 414.739 219.270 C 410.694 219.416, 409.877 218.962, 410.522 216.930 C 411.019 215.365, 410.672 214.727, 409.101 214.316 C 407.958 214.017, 407.269 213.374, 407.570 212.886 C 407.872 212.399, 407.416 212, 406.559 212 C 405.640 212, 405 211.135, 405 209.893 C 405 208.366, 404.556 207.956, 403.389 208.404 C 402.236 208.847, 401.942 208.593, 402.357 207.511 C 402.679 206.673, 402.395 205.999, 401.719 205.999 C 399.805 205.997, 395 201.444, 395 199.634 C 395 198.735, 394.325 198, 393.500 198 C 392.675 198, 392 197.599, 392 197.108 C 392 196.618, 390.827 195.922, 389.393 195.563 C 387.173 195.005, 386.851 194.469, 387.222 191.941 C 387.600 189.368, 387.398 189.056, 385.703 189.594 C 384.414 190.003, 383.982 189.838, 384.434 189.107 C 384.810 188.498, 384.641 188, 384.059 188 C 383.477 188, 383 187.564, 383 187.031 C 383 186.499, 383.675 186.322, 384.500 186.638 C 385.325 186.955, 386 186.716, 386 186.107 C 386 185.498, 385.298 185, 384.441 185 C 383.584 185, 383.160 184.550, 383.500 184 C 383.869 183.404, 382.655 183, 380.493 183 C 376.454 183, 372.650 181.376, 373.493 180.011 C 373.795 179.523, 373.245 178.659, 372.271 178.092 C 371.257 177.502, 371.044 177.048, 371.773 177.030 C 372.734 177.007, 372.672 176.429, 371.520 174.670 C 370.680 173.389, 370.216 172.117, 370.489 171.844 C 370.762 171.572, 369.683 171.540, 368.091 171.773 C 365.742 172.118, 365.057 171.756, 364.452 169.849 C 364.042 168.557, 363.789 167.371, 363.889 167.214 C 364.499 166.259, 360.690 163.981, 358.321 163.884 C 356.631 163.815, 356.202 163.585, 357.250 163.311 C 359.846 162.632, 359.379 161.335, 356 159.840 C 354.350 159.109, 353 157.947, 353 157.256 C 353 156.565, 352.127 156, 351.059 156 C 349.991 156, 348.840 155.550, 348.500 155 C 348.160 154.450, 348.359 154, 348.941 154 C 350.847 154, 350.050 152.537, 347.049 150.527 C 345.400 149.422, 344.557 148.274, 345.133 147.918 C 346.030 147.363, 340.596 145.562, 338.846 145.834 C 338.486 145.890, 337.644 145.275, 336.973 144.468 C 336.303 143.661, 336.101 143, 336.524 143 C 336.946 143, 336.112 141.906, 334.669 140.569 C 332.398 138.465, 332.278 138.077, 333.773 137.685 C 335.390 137.261, 335.388 137.225, 333.750 137.116 C 332.674 137.045, 332 136.189, 332 134.893 C 332 133.431, 331.541 132.962, 330.500 133.362 C 329.675 133.678, 329 133.495, 329 132.954 C 329 132.413, 327.613 131.127, 325.918 130.096 C 323.935 128.891, 323.311 128.052, 324.168 127.748 C 324.900 127.487, 325.142 126.892, 324.705 126.425 C 324.267 125.958, 323.070 126.100, 322.043 126.741 C 320.544 127.677, 320.062 127.603, 319.586 126.363 C 319.260 125.514, 319.261 124.387, 319.588 123.857 C 319.915 123.328, 318.792 122.370, 317.091 121.728 C 315.391 121.087, 314 120.038, 314 119.397 C 314 118.757, 313.097 117.997, 311.993 117.709 C 310.745 117.382, 309.756 116.030, 309.376 114.131 C 309.040 112.452, 308.481 111.156, 308.133 111.252 C 306.578 111.678, 302.998 108.813, 303.694 107.700 C 304.826 105.889, 304.937 104, 303.912 104 C 303.410 104, 303 104.450, 303 105 C 303 105.550, 302.270 106, 301.378 106 C 300.143 106, 300.018 105.683, 300.857 104.673 C 301.703 103.653, 301.277 102.841, 299.020 101.173 C 297.403 99.978, 295.590 99, 294.991 99 C 294.391 99, 292.279 97.425, 290.297 95.500 C 288.315 93.575, 285.750 91.986, 284.597 91.968 C 282.549 91.937, 282.545 91.903, 284.419 90.484 C 286.219 89.123, 286.234 88.916, 284.667 87.185 C 283.748 86.169, 283.266 85.067, 283.597 84.737 C 283.927 84.406, 283.234 84.388, 282.056 84.696 C 280.878 85.004, 279.987 84.861, 280.076 84.378 C 280.508 82.019, 279.798 81, 277.723 81 C 273.244 81, 268.835 75.940, 272.250 74.720 C 272.938 74.475, 273.155 73.905, 272.733 73.454 C 272.312 73.002, 271.501 73.099, 270.932 73.668 C 268.396 76.204, 262.570 72.123, 264.430 69.114 C 264.737 68.616, 264.265 67.932, 263.381 67.593 C 262.424 67.225, 261.966 66.238, 262.250 65.153 C 262.633 63.689, 262.260 63.419, 260.363 63.781 C 258.452 64.147, 258 63.808, 258 62.010 C 258 60.397, 257.567 59.952, 256.426 60.390 C 254.816 61.008, 254.234 60.596, 247.779 54.264 C 244.828 51.368, 244.186 50.107, 244.674 48.162 C 245.243 45.897, 245.078 45.764, 242.515 46.407 C 240.057 47.024, 239.802 46.866, 240.281 45.032 C 240.689 43.472, 240.111 42.592, 237.941 41.470 C 236.356 40.650, 234.598 39.118, 234.035 38.066 C 232.985 36.104, 227.702 33, 225.414 33 C 223.545 33, 222.629 29.151, 224.081 27.402 C 225.859 25.260, 223.108 22.752, 218.825 22.610 C 216.996 22.550, 214.952 21.825, 214.282 21 C 213.223 19.696, 213.059 19.742, 213.032 21.357 M 209.164 47.750 C 209.491 49.244, 207.761 54, 206.892 54 C 206.401 54, 206 54.723, 206 55.607 C 206 56.648, 206.546 57.004, 207.552 56.618 C 208.442 56.277, 208.843 56.445, 208.493 57.011 C 207.145 59.193, 211.623 57.768, 213.283 55.487 C 215.007 53.117, 214.999 52.979, 213.033 51.296 C 211.915 50.339, 211 48.981, 211 48.278 C 211 47.575, 210.550 47, 210 47 C 209.450 47, 209.074 47.337, 209.164 47.750 M 248.451 87.079 C 248.079 87.682, 248.275 88.675, 248.887 89.287 C 250.595 90.995, 250.208 93.123, 248.250 92.794 C 246.992 92.583, 246.411 93.274, 246.184 95.250 C 246.010 96.763, 245.410 98, 244.850 98 C 244.291 98, 244.035 98.563, 244.282 99.250 C 244.528 99.938, 244.325 101.287, 243.830 102.250 C 243.335 103.213, 243.286 104, 243.721 104 C 244.156 104, 245.109 102.650, 245.840 101 C 246.570 99.350, 247.805 97.933, 248.584 97.850 C 249.363 97.767, 250.563 97.655, 251.250 97.600 C 251.938 97.545, 253.329 96.671, 254.342 95.658 C 256.131 93.869, 256.123 93.775, 254.092 92.352 C 252.941 91.546, 252 90.430, 252 89.872 C 252 88.072, 249.199 85.868, 248.451 87.079 M 167.333 117.528 C 167.333 119.257, 169.166 119.001, 169.771 117.188 C 169.989 116.534, 169.529 116, 168.750 116 C 167.971 116, 167.333 116.688, 167.333 117.528 M 272.998 117 C 272.994 117.275, 271.418 119.213, 269.495 121.306 C 265.632 125.512, 265.245 126.773, 267.543 127.655 C 269.613 128.449, 270.657 127.257, 269.183 125.783 C 267.738 124.338, 267.650 123, 269 123 C 269.550 123, 270 123.723, 270 124.607 C 270 125.753, 270.502 126.002, 271.750 125.473 C 272.712 125.066, 274.262 124.763, 275.193 124.800 C 276.323 124.845, 276.688 124.352, 276.291 123.317 C 275.796 122.025, 276.043 121.953, 277.783 122.884 C 280.461 124.317, 280.673 124.295, 281.357 122.512 C 281.687 121.652, 281.416 121.124, 280.714 121.262 C 280.046 121.393, 279.364 120.328, 279.198 118.896 C 278.945 116.720, 278.412 116.309, 275.950 116.396 C 274.330 116.453, 273.001 116.725, 272.998 117 M 282.565 123.895 C 282.260 124.388, 282.684 125.048, 283.506 125.364 C 284.413 125.712, 285 125.361, 285 124.469 C 285 122.851, 283.437 122.483, 282.565 123.895 M 148.300 134.353 C 147.860 135.098, 146.866 135.909, 146.092 136.156 C 145.317 136.403, 144.536 137.707, 144.356 139.053 L 144.028 141.500 145.986 139.174 C 147.068 137.888, 148.454 137.163, 149.084 137.552 C 150.475 138.412, 152.010 136.189, 151.300 134.341 C 150.641 132.621, 149.320 132.627, 148.300 134.353 M 181.707 169.989 C 181.993 171.083, 182.626 171.731, 183.114 171.430 C 184.526 170.557, 184.139 168, 182.594 168 C 181.682 168, 181.370 168.700, 181.707 169.989 M 171.250 174.662 C 170.563 174.940, 170 176.077, 170 177.190 C 170 178.640, 169.543 179.039, 168.389 178.596 C 167.113 178.106, 166.897 178.454, 167.352 180.267 C 167.784 181.990, 167.380 182.798, 165.719 183.529 C 163.126 184.670, 162.213 187.667, 164.459 187.667 C 165.306 187.667, 166 187.292, 166 186.833 C 166 186.375, 166.900 186, 168 186 C 169.397 186, 170.011 185.322, 170.035 183.750 C 170.070 181.528, 170.089 181.532, 171.500 184 C 172.286 185.375, 172.945 185.938, 172.965 185.250 C 173.034 182.789, 173.159 182.491, 174.407 181.792 C 175.103 181.402, 175.733 179.490, 175.806 177.542 C 175.940 173.981, 174.770 173.242, 171.250 174.662 M 344.500 181 C 344.160 181.550, 344.385 182, 345 182 C 345.615 182, 345.797 182.520, 345.405 183.155 C 344.972 183.854, 345.129 184.038, 345.802 183.622 C 346.413 183.245, 346.659 182.275, 346.349 181.468 C 345.685 179.738, 345.335 179.649, 344.500 181 M 348.116 187.250 C 348.049 188.254, 347.200 189, 346.122 189 C 343.469 189, 341.920 191.254, 341.529 195.683 C 341.344 197.783, 341.407 198.713, 341.670 197.750 C 342.148 195.996, 344 195.267, 344 196.833 C 344 197.292, 344.675 197.667, 345.500 197.667 C 346.325 197.667, 346.782 197.448, 346.515 197.182 C 346.248 196.915, 347.189 196.096, 348.605 195.361 C 350.403 194.429, 351.736 194.323, 353.024 195.013 C 354.038 195.556, 355.659 196, 356.625 196 C 358.219 196, 358.203 195.869, 356.452 194.589 C 355.391 193.812, 354.245 193.349, 353.906 193.558 C 352.985 194.127, 349.270 189.792, 348.716 187.500 C 348.325 185.884, 348.210 185.836, 348.116 187.250 M 106.750 193.689 C 104.671 194.233, 104.398 196, 106.393 196 C 107.159 196, 108.045 195.325, 108.362 194.500 C 108.678 193.675, 108.839 193.052, 108.719 193.116 C 108.598 193.180, 107.713 193.438, 106.750 193.689 M 207.282 193.750 C 207.927 194.957, 204.159 198.067, 203.447 196.915 C 202.647 195.620, 200 197.699, 200 199.622 C 200 200.380, 199.475 201, 198.833 201 C 198.192 201, 197.928 201.261, 198.247 201.580 C 198.566 201.899, 199.991 201.397, 201.413 200.465 C 202.836 199.533, 204 199.026, 204 199.340 C 204 199.653, 205.125 198.784, 206.500 197.409 C 209.133 194.776, 209.714 193, 207.941 193 C 207.359 193, 207.062 193.338, 207.282 193.750 M 102.939 198.339 C 103.436 198.836, 103.606 199.864, 103.315 200.622 C 102.629 202.410, 103.758 202.385, 105.571 200.571 C 107.734 198.409, 107.289 196.999, 104.517 197.228 C 103.035 197.351, 102.398 197.798, 102.939 198.339 M 95.250 202.662 C 93.912 203.202, 93.474 210, 94.777 210 C 95.205 210, 96.743 208.646, 98.195 206.991 C 100.686 204.152, 100.731 203.926, 98.983 202.991 C 97.965 202.446, 96.989 202.036, 96.816 202.079 C 96.642 202.122, 95.938 202.385, 95.250 202.662 M 367.261 207.954 C 365.830 210.246, 366.783 211.131, 369.826 210.335 C 372.291 209.691, 372.528 208.928, 370.800 207.200 C 369.173 205.573, 368.683 205.677, 367.261 207.954 M 86.423 210.250 C 85.200 214.113, 82.593 216.936, 80.219 216.969 C 78.964 216.986, 77.689 217.647, 77.386 218.437 C 77.083 219.227, 76.309 219.688, 75.667 219.462 C 73.932 218.850, 67.819 224.824, 68.193 226.766 C 68.394 227.808, 69.461 228.437, 71.008 228.426 C 72.379 228.416, 74.026 229.103, 74.668 229.952 C 76.054 231.784, 77.271 230.858, 77.496 227.800 C 77.662 225.545, 82.280 223.437, 84.309 224.691 C 84.899 225.056, 85.087 224.233, 84.779 222.625 C 84.498 221.155, 84.638 219.724, 85.090 219.444 C 85.543 219.165, 85.659 218.275, 85.349 217.468 C 85.040 216.661, 85.311 216, 85.952 216 C 86.593 216, 86.840 216.450, 86.500 217 C 86.160 217.550, 86.809 218, 87.941 218 C 89.073 218, 90 217.502, 90 216.893 C 90 216.284, 90.725 216.064, 91.611 216.404 C 92.719 216.830, 93.056 216.589, 92.689 215.633 C 92.396 214.869, 92.680 213.720, 93.320 213.080 C 94.204 212.196, 94.126 211.691, 92.992 210.974 C 92.171 210.455, 91.950 210.017, 92.500 210 C 94.176 209.949, 90.620 208.032, 88.817 208.015 C 87.892 208.007, 86.814 209.012, 86.423 210.250 M 229.333 211.637 C 229.333 213.201, 229.946 213.320, 231.835 212.123 C 232.864 211.471, 232.731 211.163, 231.251 210.776 C 230.054 210.463, 229.333 210.786, 229.333 211.637 M 224.015 215.281 C 224.007 216.261, 223.328 217.321, 222.506 217.636 C 221.684 217.952, 221.265 218.620, 221.575 219.121 C 221.885 219.622, 222.557 219.774, 223.069 219.457 C 223.581 219.141, 224 219.359, 224 219.941 C 224 220.523, 224.450 221, 225 221 C 226.274 221, 226.274 216.971, 225 215 C 224.175 213.724, 224.028 213.765, 224.015 215.281 M 217.312 222.333 C 213.852 224.053, 213.764 226.766, 217.087 229.223 C 219.188 230.776, 219.654 231.602, 218.752 232.174 C 217.836 232.756, 217.819 232.973, 218.691 232.985 C 220.786 233.012, 221.365 230.740, 219.593 229.444 C 217.843 228.165, 219.087 226.318, 220.931 227.457 C 222.364 228.343, 223.257 226.162, 222.575 223.443 C 221.921 220.835, 220.801 220.599, 217.312 222.333 M 45.896 224.286 C 45.013 224.958, 43.987 226.465, 43.616 227.635 C 42.786 230.250, 44.680 231.180, 48.665 230.114 C 51.710 229.300, 53.240 226, 50.573 226 C 49.708 226, 49 225.325, 49 224.500 C 49 222.702, 48.060 222.637, 45.896 224.286 M 55.583 226.866 C 55.152 227.563, 55.070 228.403, 55.400 228.733 C 56.295 229.628, 57.271 228.312, 56.787 226.862 C 56.449 225.846, 56.213 225.846, 55.583 226.866 M 58.554 226.912 C 58.244 227.414, 59.132 227.700, 60.528 227.546 C 64.024 227.163, 64.925 226, 61.726 226 C 60.291 226, 58.864 226.411, 58.554 226.912 M 155.255 234.464 C 153.048 238.117, 152.155 238.826, 150.336 238.370 C 147.263 237.598, 145.556 238.760, 147.074 240.589 C 148.001 241.707, 147.902 242, 146.598 242 C 145.692 242, 144.522 243.128, 143.997 244.507 C 143.473 245.886, 142.487 246.899, 141.805 246.757 C 141.124 246.616, 139.768 248.071, 138.792 249.990 C 137.815 251.910, 136.420 253.485, 135.691 253.490 C 133.590 253.506, 130.768 256.739, 132.124 257.577 C 132.751 257.964, 133.666 257.561, 134.158 256.682 C 134.694 255.724, 135.709 255.335, 136.690 255.711 C 137.875 256.166, 138.101 255.973, 137.509 255.014 C 136.863 253.969, 137.468 253.814, 140.367 254.285 C 142.390 254.613, 143.834 254.540, 143.576 254.123 C 143.318 253.706, 144.214 252.170, 145.567 250.711 C 146.921 249.251, 148.451 246.944, 148.969 245.583 C 149.637 243.825, 150.940 242.914, 153.466 242.440 C 157.795 241.628, 158.360 240.811, 158.157 235.650 C 158.067 233.353, 158.538 231.277, 159.250 230.825 C 160.243 230.194, 160.238 230.027, 159.225 230.015 C 158.524 230.007, 156.737 232.009, 155.255 234.464 M 334.559 233.532 C 332.662 234.967, 332.668 235, 334.809 235 C 336.090 235, 337 234.377, 337 233.500 C 337 231.690, 336.993 231.691, 334.559 233.532 M 335 257 C 335 258.100, 334.493 258.887, 333.872 258.750 C 333.252 258.613, 332.566 259.708, 332.347 261.185 C 331.889 264.277, 329.015 270.210, 329.006 268.083 C 329.003 267.304, 328.744 266.923, 328.431 267.236 C 327.557 268.109, 330.308 272, 331.800 272 C 332.525 272, 332.840 272.450, 332.500 273 C 331.544 274.548, 333.606 274.180, 334.947 272.564 C 335.814 271.520, 335.848 270.584, 335.071 269.133 C 334.251 267.600, 334.366 266.777, 335.570 265.573 C 336.549 264.594, 336.890 263.228, 336.479 261.933 C 335.982 260.367, 336.326 259.727, 337.886 259.319 C 339.562 258.881, 339.761 258.423, 338.941 256.890 C 337.605 254.394, 335 254.467, 335 257 M 124.500 265 C 123.505 266.100, 123.102 267, 123.604 267 C 124.107 267, 125.081 266.100, 125.768 265 C 126.455 263.900, 126.858 263, 126.663 263 C 126.469 263, 125.495 263.900, 124.500 265 M 147.607 277.582 C 146.668 280.029, 146.872 280.271, 148.500 278.643 C 150.200 276.943, 150.417 276, 149.107 276 C 148.616 276, 147.941 276.712, 147.607 277.582 M 90.103 287.367 C 88.946 287.883, 88 288.713, 88 289.212 C 88 289.710, 87.591 289.865, 87.090 289.556 C 86.590 289.247, 85.449 289.274, 84.554 289.618 C 83.081 290.183, 83.073 290.462, 84.464 292.586 C 86.261 295.327, 86.366 296, 85 296 C 84.450 296, 84 295.229, 84 294.286 C 84 292.696, 83.881 292.690, 82.357 294.214 C 80.856 295.715, 80.852 295.994, 82.303 297.445 C 83.754 298.896, 84.070 298.841, 85.970 296.802 C 87.113 295.574, 87.827 293.992, 87.556 293.285 C 87.257 292.506, 87.839 292, 89.031 292 C 90.114 292, 90.888 291.442, 90.750 290.761 C 90.588 289.959, 91.471 289.632, 93.250 289.833 C 95.374 290.072, 96 289.721, 96 288.286 C 96 286.229, 93.520 285.843, 90.103 287.367 M 252.531 293.750 C 252.942 295.262, 253.244 297.288, 253.202 298.250 C 253.159 299.212, 253.557 300, 254.085 300 C 254.614 300, 254.359 301.048, 253.520 302.330 C 252.105 304.488, 252.326 306, 254.055 306 C 254.452 306, 255.064 304.471, 255.415 302.602 C 255.869 300.179, 256.710 299.039, 258.343 298.629 C 259.602 298.313, 261.257 296.888, 262.020 295.462 C 263.796 292.144, 262.332 291.037, 256.142 291.015 C 251.870 291, 251.798 291.055, 252.531 293.750 M 250.648 313.474 C 250.215 314.604, 250.747 315, 252.698 315 C 254.147 315, 255.146 314.873, 254.917 314.717 C 254.688 314.561, 253.765 313.875, 252.867 313.192 C 251.535 312.179, 251.125 312.231, 250.648 313.474 M 251 318.441 C 251 319.298, 251.450 320, 252 320 C 252.550 320, 253 319.577, 253 319.059 C 253 318.541, 252.550 317.840, 252 317.500 C 251.450 317.160, 251 317.584, 251 318.441 M 106 320 C 106 320.550, 106.873 321, 107.941 321 C 109.009 321, 110.160 320.550, 110.500 320 C 110.851 319.433, 110.010 319, 108.559 319 C 107.152 319, 106 319.450, 106 320 M 93.553 323.915 C 93.242 324.418, 93.512 325.004, 94.154 325.218 C 95.028 325.509, 95.037 326.094, 94.190 327.553 C 93.121 329.397, 93.059 329.402, 93.030 327.643 C 93.010 326.409, 92.497 325.979, 91.500 326.362 C 90.675 326.678, 89.993 326.389, 89.985 325.719 C 89.973 324.826, 89.748 324.849, 89.143 325.803 C 88.689 326.519, 87.908 327.029, 87.408 326.934 C 84.501 326.386, 83.099 327.272, 82.491 330.041 C 81.779 333.284, 83.445 336.461, 85.268 335.334 C 85.840 334.981, 86.017 335.163, 85.660 335.741 C 85.303 336.318, 85.698 337.054, 86.536 337.376 C 87.552 337.765, 88.461 337.049, 89.260 335.230 C 90.565 332.259, 92.006 330.885, 93.105 331.565 C 93.979 332.105, 96.157 326.063, 95.482 324.971 C 95.210 324.531, 95.553 323.943, 96.244 323.664 C 97.025 323.350, 96.860 323.128, 95.809 323.079 C 94.879 323.036, 93.864 323.412, 93.553 323.915 M 253.750 330.220 C 252.238 330.741, 251 331.627, 251 332.190 C 251 332.753, 251.787 332.914, 252.750 332.548 C 254.153 332.014, 254.252 332.131, 253.250 333.141 C 251.539 334.865, 251.677 337, 253.500 337 C 254.975 337, 255.427 335.858, 255.042 333.106 C 254.934 332.340, 255.430 331.352, 256.144 330.911 C 258.231 329.621, 256.740 329.191, 253.750 330.220 M 106 351.969 C 106 352.501, 105.383 352.700, 104.628 352.411 C 103.775 352.083, 102.170 353.605, 100.378 356.440 C 98.795 358.946, 96.802 360.997, 95.950 360.998 C 95.098 360.999, 93.833 361.563, 93.141 362.250 C 92.131 363.253, 92.022 363.131, 92.592 361.635 C 93.164 360.134, 92.931 359.878, 91.401 360.325 C 90.356 360.631, 87.475 361.419, 85 362.076 C 82.525 362.734, 81.063 363.473, 81.750 363.719 C 82.438 363.965, 83 364.611, 83 365.155 C 83 367.617, 86.526 369.500, 91.135 369.500 C 95.621 369.500, 95.877 369.359, 95.336 367.201 C 94.820 365.148, 95.032 364.970, 97.310 365.542 C 99.453 366.080, 100.231 365.620, 102.164 362.671 C 103.430 360.740, 105.148 359.209, 105.983 359.271 C 107.727 359.399, 113 356.166, 113 354.968 C 113 354.527, 112.438 353.940, 111.750 353.662 C 111.063 353.385, 111.400 353.115, 112.500 353.064 C 114.164 352.985, 114.248 352.807, 113 352 C 111.050 350.740, 106 350.717, 106 351.969 M 333.957 354.612 C 333.386 356.115, 333.139 357.919, 333.408 358.622 C 333.729 359.457, 333.346 359.686, 332.299 359.285 C 330.993 358.783, 330.823 359.159, 331.369 361.336 C 331.766 362.916, 331.623 364, 331.019 364 C 329.250 364, 329.916 366.885, 331.934 367.965 C 334.068 369.107, 336.711 369.378, 335.682 368.349 C 335.324 367.991, 335.788 367.144, 336.714 366.467 C 338.277 365.325, 338.281 364.943, 336.779 361.118 C 335.889 358.853, 335.575 357, 336.080 357 C 337.323 357, 337.255 353.276, 335.998 352.499 C 335.447 352.158, 334.529 353.109, 333.957 354.612 M 298.298 359.266 C 297.856 361.473, 297.466 361.802, 296.372 360.894 C 295.299 360.004, 295 360.132, 295 361.485 C 295 362.507, 294.460 363.007, 293.678 362.707 C 292.951 362.428, 291.858 362.997, 291.250 363.972 C 290.336 365.435, 290.560 365.934, 292.536 366.834 C 294.164 367.576, 295.132 367.596, 295.564 366.896 C 295.914 366.330, 295.978 365.645, 295.706 365.373 C 295.136 364.802, 298.873 361.006, 301.557 359.429 C 304.417 357.749, 304.375 356.190, 301.475 356.353 C 299.462 356.466, 298.723 357.144, 298.298 359.266 M 163.707 364.989 C 163.993 366.083, 164.648 366.718, 165.162 366.400 C 165.714 366.059, 165.617 365.244, 164.926 364.411 C 163.349 362.510, 163.091 362.632, 163.707 364.989" stroke="none" fill="#fffcfc" fill-rule="evenodd"/><path d="" stroke="none" fill="#fcfcfc" fill-rule="evenodd"/></svg>