<svg width="50" height="50" viewBox="0 0 50 50" fill="none" xmlns="http://www.w3.org/2000/svg">
<path d="M7.743 21.8H11.228V44.2H16.457V25H21.686V44.2H26.914V25H32.144V44.2H37.373V21.8H40.857C41.82 21.8 42.601 21.084 42.601 20.2C42.601 19.666 42.313 19.196 41.874 18.906L41.877 18.903L41.851 18.888L41.806 18.861L25.171 10.252V7.73C28.243 9.142 30.772 6.71 34.756 8.172V2.601C30.77 1.139 28.242 3.569 25.171 2.158V1.8C25.171 1.357 24.782 1 24.3 1C23.818 1 23.43 1.357 23.43 1.8V10.252L6.795 18.859L6.75 18.886L6.725 18.903V18.906C6.288 19.196 6.001 19.667 6.001 20.2C6 21.084 6.781 21.8 7.743 21.8V21.8ZM9.485 45.801L6 49H42.602L39.115 45.801H9.485Z" fill="black"/>
</svg>
