<svg xmlns="http://www.w3.org/2000/svg" width="426" height="426" viewBox="0 0 426 426" version="1.1"><path d="M 281.356 42.701 C 280.726 42.918, 280.462 44.049, 280.767 45.217 C 281.214 46.925, 280.981 47.207, 279.570 46.665 C 278.607 46.296, 277.298 46.332, 276.660 46.747 C 275.249 47.663, 265.004 47.760, 265.002 46.857 C 265.001 46.503, 264.330 45.957, 263.512 45.643 C 262.694 45.329, 262.131 45.548, 262.262 46.129 C 262.393 46.710, 261.639 47.707, 260.588 48.343 C 259.536 48.979, 257.818 50.318, 256.771 51.317 C 255.182 52.833, 254.587 52.921, 253.183 51.850 C 252.257 51.144, 251.816 50.942, 252.202 51.402 C 253.271 52.674, 250.638 54.802, 247.917 54.865 C 243.600 54.966, 242 55.318, 242 56.167 C 242 56.625, 241.325 57, 240.500 57 C 239.675 57, 239 57.498, 239 58.107 C 239 58.716, 238.325 58.955, 237.500 58.638 C 236.555 58.276, 236 58.650, 236 59.648 C 236 60.794, 235.316 61.102, 233.530 60.761 C 232.146 60.496, 231.314 60.699, 231.637 61.221 C 231.953 61.734, 231.265 63.036, 230.106 64.116 C 228.948 65.195, 227.986 65.723, 227.968 65.289 C 227.951 64.855, 227.276 65.374, 226.468 66.441 C 225.143 68.194, 225 68.212, 225 66.632 C 225 65.670, 224.543 65.165, 223.984 65.510 C 223.425 65.856, 223.239 66.577, 223.570 67.113 C 224.412 68.475, 221.139 73.204, 219.889 72.431 C 219.326 72.083, 218.629 72.702, 218.340 73.807 C 217.865 75.623, 215.372 76.950, 212.367 76.986 C 211.743 76.994, 210.986 76.055, 210.684 74.899 C 210.382 73.744, 209.674 73.083, 209.111 73.431 C 207.861 74.204, 204.588 69.475, 205.430 68.113 C 205.761 67.577, 205.575 66.856, 205.016 66.510 C 204.457 66.165, 204 66.670, 204 67.632 C 204 69.212, 203.857 69.194, 202.532 67.441 C 201.724 66.374, 201.049 65.855, 201.032 66.289 C 201.014 66.723, 200.052 66.195, 198.894 65.116 C 197.735 64.036, 197.047 62.734, 197.363 62.221 C 197.686 61.699, 196.854 61.496, 195.470 61.761 C 193.684 62.102, 193 61.794, 193 60.648 C 193 59.650, 192.445 59.276, 191.500 59.638 C 190.675 59.955, 190 59.716, 190 59.107 C 190 58.498, 189.325 58, 188.500 58 C 187.675 58, 187 57.625, 187 57.167 C 187 56.318, 185.400 55.966, 181.083 55.865 C 178.362 55.802, 175.729 53.674, 176.798 52.402 C 177.184 51.942, 176.743 52.144, 175.817 52.850 C 174.413 53.921, 173.818 53.833, 172.229 52.317 C 171.182 51.318, 169.464 49.979, 168.412 49.343 C 167.361 48.707, 166.607 47.710, 166.738 47.129 C 166.869 46.548, 166.306 46.329, 165.488 46.643 C 164.670 46.957, 163.999 47.503, 163.998 47.857 C 163.996 48.760, 153.751 48.663, 152.340 47.747 C 151.702 47.332, 150.393 47.296, 149.430 47.665 C 148.022 48.205, 147.786 47.924, 148.229 46.233 C 148.566 44.944, 148.241 43.923, 147.389 43.596 C 146.625 43.303, 145.999 43.611, 145.999 44.281 C 145.998 44.987, 144.343 45.613, 142.071 45.769 C 139.911 45.917, 136.231 46.713, 133.893 47.538 C 130.494 48.737, 129.480 48.783, 128.836 47.769 C 128.194 46.758, 128.028 46.767, 128.015 47.817 C 128.006 48.644, 127.308 48.915, 126.141 48.545 C 125.068 48.204, 123.748 48.598, 123.019 49.477 C 121.396 51.433, 119.891 51.447, 120.638 49.500 C 120.955 48.675, 120.716 48, 120.107 48 C 119.498 48, 119 48.627, 119 49.393 C 119 50.159, 118.325 51.045, 117.500 51.362 C 116.586 51.712, 116 51.363, 116 50.469 C 116 49.661, 115.213 49.007, 114.250 49.015 C 112.754 49.028, 112.718 49.172, 114 50 C 115.662 51.074, 115.565 51.149, 112.042 51.501 C 110.690 51.636, 109.423 52.231, 109.226 52.823 C 108.990 53.530, 108.061 53.593, 106.518 53.007 C 104.740 52.331, 104.026 52.489, 103.577 53.661 C 103.243 54.531, 102.331 54.957, 101.492 54.635 C 100.604 54.295, 100 54.634, 100 55.472 C 100 56.248, 99.480 57.203, 98.845 57.595 C 98.130 58.038, 97.962 57.870, 98.405 57.155 C 98.797 56.520, 98.679 56, 98.142 56 C 97.606 56, 97.017 56.437, 96.833 56.971 C 96.650 57.505, 95.375 58.113, 94 58.321 C 92.625 58.529, 91.500 59.194, 91.500 59.800 C 91.500 60.405, 90.876 61.485, 90.114 62.200 C 88.953 63.289, 88.816 63.135, 89.270 61.250 C 89.569 60.012, 89.405 59, 88.906 59 C 88.408 59, 88 60.750, 88 62.889 C 88 65.959, 87.637 66.749, 86.274 66.639 C 85.325 66.562, 84.537 67.169, 84.524 67.986 C 84.511 68.804, 83.659 69.635, 82.632 69.832 C 81.296 70.090, 80.986 69.809, 81.546 68.846 C 81.977 68.106, 80.901 68.962, 79.156 70.750 C 76.108 73.871, 74.962 74.425, 72.266 74.078 C 71.542 73.985, 71.276 74.557, 71.623 75.460 C 71.948 76.307, 71.716 77, 71.107 77 C 70.498 77, 70 77.511, 70 78.135 C 70 79.380, 65.895 83.481, 63.810 84.321 C 62.747 84.748, 62.742 85.019, 63.784 85.754 C 65.557 87.005, 64.388 89.502, 61.389 90.869 C 60.013 91.496, 59.164 92.457, 59.503 93.004 C 59.841 93.552, 59.611 94, 58.992 94 C 58.320 94, 58.122 94.808, 58.500 96 C 58.849 97.100, 58.720 98, 58.213 98 C 57.707 98, 55.989 99.213, 54.396 100.696 C 52.243 102.699, 52.013 103.198, 53.500 102.636 C 55.035 102.057, 55.227 102.156, 54.328 103.063 C 53.684 103.712, 53.379 104.823, 53.650 105.532 C 53.922 106.240, 53.206 107.117, 52.058 107.482 C 50.910 107.846, 50.208 108.528, 50.498 108.996 C 50.787 109.465, 50.231 110.055, 49.262 110.308 C 47.664 110.725, 47.659 110.779, 49.206 110.884 C 50.770 110.990, 50.791 111.341, 49.462 115.106 C 48.666 117.365, 48.262 119.615, 48.566 120.106 C 48.870 120.598, 48.719 121, 48.232 121 C 47.745 121, 47.545 122.350, 47.787 124 C 48.062 125.878, 47.788 127, 47.054 127 C 46.410 127, 46.160 127.450, 46.500 128 C 46.840 128.550, 46.416 129, 45.559 129 C 44.702 129, 44 129.450, 44 130 C 44 130.550, 44.788 131.007, 45.750 131.015 C 46.765 131.024, 47.068 131.339, 46.471 131.765 C 45.905 132.169, 45.516 133.625, 45.608 135 C 45.699 136.375, 45.396 138.219, 44.934 139.097 C 44.427 140.059, 44.542 141.142, 45.223 141.823 C 46.063 142.663, 45.953 143.408, 44.795 144.726 C 42.341 147.520, 41.705 150.673, 43.459 151.346 C 44.648 151.802, 44.765 152.487, 44 154.500 C 43.239 156.501, 43.353 157.198, 44.511 157.643 C 46.019 158.221, 46.631 161, 45.250 161 C 44.837 161, 44.453 163.679, 44.396 166.952 C 44.338 170.225, 44.712 172.812, 45.226 172.701 C 45.740 172.591, 46.855 173.513, 47.702 174.750 C 48.671 176.164, 48.827 177, 48.122 177 C 47.505 177, 47 177.424, 47 177.943 C 47 178.461, 47.979 178.697, 49.177 178.466 C 50.708 178.171, 51.039 178.361, 50.294 179.106 C 49.549 179.851, 49.567 181.042, 50.354 183.127 C 51.163 185.269, 51.169 186.285, 50.378 186.795 C 48.586 187.949, 49.625 190.847, 52.940 193.944 C 54.651 195.542, 55.646 197.101, 55.151 197.407 C 53.584 198.375, 54.177 203.024, 55.991 203.995 C 56.971 204.520, 58.007 206.645, 58.361 208.855 C 58.712 211.053, 59.682 213.048, 60.563 213.386 C 61.611 213.788, 61.925 214.661, 61.502 215.995 C 61.038 217.457, 61.319 218, 62.540 218 C 63.623 218, 64.009 218.534, 63.634 219.512 C 63.179 220.698, 63.587 220.891, 65.527 220.404 C 67.451 219.921, 68 220.171, 68 221.531 C 68 222.493, 68.771 223.843, 69.712 224.532 C 71.316 225.704, 71.719 227.480, 71.919 234.250 C 71.980 236.333, 72.499 237, 74.059 237 C 75.191 237, 75.860 237.418, 75.544 237.928 C 75.229 238.438, 75.877 239.144, 76.985 239.495 C 78.093 239.847, 79 240.779, 79 241.567 C 79 242.355, 79.450 243, 80 243 C 81.439 243, 81.234 245.739, 79.750 246.338 C 79.063 246.615, 79.737 246.878, 81.250 246.921 C 82.993 246.971, 84 247.549, 84 248.500 C 84 249.325, 84.852 250, 85.893 250 C 86.934 250, 88.045 250.675, 88.362 251.500 C 88.678 252.325, 89.626 253, 90.469 253 C 91.311 253, 92 253.450, 92 254 C 92 254.550, 92.675 255, 93.500 255 C 95.317 255, 95.486 256.616, 93.750 257.391 C 93.063 257.698, 93.625 257.848, 95 257.725 C 96.916 257.552, 97.575 258.026, 97.820 259.750 C 97.995 260.988, 98.544 262, 99.038 262 C 99.533 262, 99.695 262.630, 99.400 263.400 C 99.015 264.403, 100.018 264.996, 102.931 265.488 C 105.444 265.913, 107 266.716, 107 267.588 C 107 268.365, 107.967 269.967, 109.148 271.148 C 110.954 272.954, 111.102 273.607, 110.079 275.245 C 109.409 276.318, 109.142 277.475, 109.485 277.818 C 109.828 278.161, 110.527 277.780, 111.039 276.971 C 111.762 275.828, 111.988 276.057, 112.055 278 C 112.134 280.295, 112.211 280.336, 113 278.500 L 113.859 276.500 114.048 278.500 C 114.152 279.600, 114.184 280.837, 114.118 281.250 C 114.053 281.663, 114.927 282, 116.059 282 C 117.191 282, 117.859 282.419, 117.543 282.931 C 117.226 283.443, 117.425 284.144, 117.984 284.490 C 118.543 284.835, 119 284.390, 119 283.500 C 119 282.610, 119.457 282.165, 120.016 282.510 C 120.575 282.856, 120.772 283.560, 120.453 284.076 C 120.134 284.592, 120.577 285.284, 121.437 285.614 C 122.296 285.944, 123.036 286.953, 123.079 287.857 C 123.127 288.847, 123.354 289.015, 123.652 288.280 C 123.998 287.426, 124.801 287.668, 126.323 289.087 C 127.521 290.202, 128.507 291.426, 128.515 291.807 C 128.524 292.188, 128.931 293.132, 129.420 293.905 C 130.072 294.935, 129.935 295.115, 128.905 294.580 C 128.132 294.180, 128.400 294.583, 129.500 295.476 C 131.329 296.961, 131.529 296.963, 131.834 295.497 C 132.098 294.227, 132.464 294.140, 133.596 295.080 C 134.756 296.042, 134.787 296.554, 133.762 297.799 C 132.666 299.130, 132.861 299.242, 135.250 298.647 C 137.994 297.963, 138.505 298.547, 138.052 301.850 C 137.950 302.593, 138.280 302.945, 138.786 302.632 C 140.003 301.880, 143.491 304.479, 143.533 306.169 C 143.552 306.901, 143.102 307.846, 142.533 308.268 C 141.965 308.690, 142.950 308.798, 144.722 308.508 C 147.305 308.086, 147.830 308.280, 147.367 309.485 C 147.050 310.312, 146.388 310.740, 145.895 310.435 C 145.403 310.131, 145 310.359, 145 310.941 C 145 311.523, 145.450 312, 146 312 C 146.550 312, 147 312.613, 147 313.361 C 147 314.274, 147.824 314.565, 149.500 314.245 C 150.959 313.966, 152 314.232, 152 314.883 C 152 315.498, 152.679 316, 153.508 316 C 154.338 316, 155.747 317.825, 156.639 320.057 C 157.615 322.495, 158.763 323.921, 159.518 323.631 C 160.347 323.313, 160.603 323.804, 160.270 325.075 C 159.673 327.357, 160.825 327.603, 162.390 325.528 C 163.303 324.317, 164.031 324.934, 166.500 329.009 C 168.150 331.733, 170.218 333.971, 171.095 333.981 C 172.545 333.998, 175.856 336.792, 175.858 338 C 175.863 340.564, 178.275 344, 180.069 344 C 181.334 344, 182.394 344.792, 182.702 345.967 C 182.984 347.049, 184.019 348.189, 185 348.500 C 186.603 349.009, 188.388 352.310, 188.108 354.250 C 188.049 354.662, 188.900 355.900, 190 357 C 191.100 358.100, 192 358.495, 192 357.878 C 192 357.089, 192.436 357.117, 193.463 357.969 C 194.743 359.031, 194.724 359.491, 193.316 361.641 C 192.031 363.601, 191.988 364.038, 193.103 363.799 C 193.871 363.635, 194.831 363.050, 195.235 362.500 C 195.690 361.881, 195.975 361.976, 195.985 362.750 C 195.993 363.438, 196.910 364, 198.023 364 C 199.922 364, 199.951 364.146, 198.492 366.371 C 196.988 368.667, 197.053 368.797, 200.492 370.429 C 202.447 371.357, 203.803 372.509, 203.506 372.990 C 203.210 373.470, 203.803 374.456, 204.825 375.182 C 205.846 375.907, 207.188 377.453, 207.806 378.618 C 208.634 380.179, 209.596 380.609, 211.465 380.252 C 212.859 379.985, 214 379.401, 214 378.953 C 214 378.506, 215.351 378.527, 217.002 379.001 C 219.551 379.732, 220.178 379.532, 221.161 377.681 C 221.797 376.481, 223.154 374.907, 224.175 374.182 C 225.197 373.456, 225.790 372.470, 225.494 371.990 C 225.197 371.509, 226.553 370.357, 228.508 369.429 C 231.947 367.797, 232.012 367.667, 230.508 365.371 C 229.049 363.146, 229.078 363, 230.977 363 C 232.090 363, 233.007 362.438, 233.015 361.750 C 233.025 360.976, 233.310 360.881, 233.765 361.500 C 234.169 362.050, 235.129 362.635, 235.897 362.799 C 237.012 363.038, 236.969 362.601, 235.684 360.641 C 234.276 358.491, 234.257 358.031, 235.537 356.969 C 236.564 356.117, 237 356.089, 237 356.878 C 237 357.495, 237.900 357.100, 239 356 C 240.100 354.900, 240.951 353.662, 240.892 353.250 C 240.612 351.310, 242.397 348.009, 244 347.500 C 244.981 347.189, 246.016 346.049, 246.298 344.967 C 246.606 343.792, 247.666 343, 248.931 343 C 250.322 343, 251.409 342.056, 252.095 340.250 C 252.670 338.738, 252.996 337.435, 252.820 337.355 C 251.933 336.953, 256.531 332.997, 257.905 332.981 C 258.782 332.971, 260.850 330.733, 262.500 328.009 C 264.969 323.934, 265.697 323.317, 266.610 324.528 C 268.175 326.603, 269.327 326.357, 268.730 324.075 C 268.397 322.804, 268.653 322.313, 269.482 322.631 C 270.237 322.921, 271.385 321.495, 272.361 319.057 C 273.253 316.825, 274.662 315, 275.492 315 C 276.321 315, 277 314.498, 277 313.883 C 277 313.232, 278.041 312.966, 279.500 313.245 C 281.176 313.565, 282 313.274, 282 312.361 C 282 311.613, 282.450 311, 283 311 C 283.550 311, 284 310.523, 284 309.941 C 284 309.359, 283.597 309.131, 283.105 309.435 C 282.612 309.740, 281.950 309.312, 281.633 308.485 C 281.170 307.280, 281.695 307.086, 284.278 307.508 C 286.050 307.798, 287.035 307.690, 286.467 307.268 C 285.898 306.846, 285.448 305.901, 285.467 305.169 C 285.509 303.479, 288.997 300.880, 290.214 301.632 C 290.720 301.945, 291.050 301.593, 290.948 300.850 C 290.495 297.547, 291.006 296.963, 293.750 297.647 C 296.139 298.242, 296.334 298.130, 295.238 296.799 C 294.213 295.554, 294.244 295.042, 295.404 294.080 C 296.536 293.140, 296.902 293.227, 297.166 294.497 C 297.471 295.963, 297.671 295.961, 299.500 294.476 C 300.600 293.583, 300.825 293.196, 300 293.618 C 298.796 294.233, 298.730 294.100, 299.665 292.942 C 300.306 292.149, 300.756 291.188, 300.665 290.807 C 300.574 290.426, 301.479 289.202, 302.677 288.087 C 304.199 286.668, 305.002 286.426, 305.348 287.280 C 305.646 288.015, 305.873 287.847, 305.921 286.857 C 305.964 285.953, 306.704 284.944, 307.563 284.614 C 308.423 284.284, 308.866 283.592, 308.547 283.076 C 308.228 282.560, 308.425 281.856, 308.984 281.510 C 309.543 281.165, 310 281.610, 310 282.500 C 310 283.390, 310.457 283.835, 311.016 283.490 C 311.575 283.144, 311.774 282.443, 311.457 281.931 C 311.141 281.419, 311.809 281, 312.941 281 C 314.073 281, 314.947 280.663, 314.882 280.250 C 314.816 279.837, 314.848 278.600, 314.952 277.500 L 315.141 275.500 316 277.500 C 316.789 279.336, 316.866 279.295, 316.945 277 C 317.012 275.057, 317.238 274.828, 317.961 275.971 C 318.473 276.780, 319.172 277.161, 319.515 276.818 C 319.858 276.475, 319.591 275.318, 318.921 274.245 C 317.898 272.607, 318.046 271.954, 319.852 270.148 C 321.033 268.967, 322 267.365, 322 266.588 C 322 265.716, 323.556 264.913, 326.069 264.488 C 328.982 263.996, 329.985 263.403, 329.600 262.400 C 329.305 261.630, 329.467 261, 329.962 261 C 330.456 261, 331.005 259.988, 331.180 258.750 C 331.425 257.026, 332.084 256.552, 334 256.725 C 335.375 256.848, 335.938 256.698, 335.250 256.391 C 333.514 255.616, 333.683 254, 335.500 254 C 336.325 254, 337 253.550, 337 253 C 337 252.450, 337.689 252, 338.531 252 C 339.374 252, 340.322 251.325, 340.638 250.500 C 340.955 249.675, 342.066 249, 343.107 249 C 344.148 249, 345 248.325, 345 247.500 C 345 246.549, 346.007 245.971, 347.750 245.921 C 349.262 245.878, 349.938 245.615, 349.250 245.338 C 347.766 244.739, 347.561 242, 349 242 C 349.550 242, 350 241.355, 350 240.567 C 350 239.779, 350.907 238.847, 352.015 238.495 C 353.123 238.144, 353.771 237.438, 353.456 236.928 C 353.140 236.418, 353.809 236, 354.941 236 C 356.501 236, 357.020 235.333, 357.081 233.250 C 357.281 226.480, 357.684 224.704, 359.288 223.532 C 360.229 222.843, 361 221.493, 361 220.531 C 361 219.171, 361.549 218.921, 363.473 219.404 C 365.413 219.891, 365.821 219.698, 365.366 218.512 C 364.991 217.534, 365.377 217, 366.460 217 C 367.681 217, 367.962 216.457, 367.498 214.995 C 367.075 213.661, 367.389 212.788, 368.437 212.386 C 369.318 212.048, 370.288 210.053, 370.639 207.855 C 370.993 205.645, 372.029 203.520, 373.009 202.995 C 374.823 202.024, 375.416 197.375, 373.849 196.407 C 373.354 196.101, 374.349 194.542, 376.060 192.944 C 379.375 189.847, 380.414 186.949, 378.622 185.795 C 377.831 185.285, 377.837 184.269, 378.646 182.127 C 379.433 180.042, 379.451 178.851, 378.706 178.106 C 377.961 177.361, 378.292 177.171, 379.823 177.466 C 381.021 177.697, 382 177.461, 382 176.943 C 382 176.424, 381.495 176, 380.878 176 C 380.173 176, 380.329 175.164, 381.298 173.750 C 382.145 172.512, 383.260 171.591, 383.774 171.701 C 384.288 171.812, 384.662 169.225, 384.604 165.952 C 384.547 162.679, 384.163 160, 383.750 160 C 382.369 160, 382.981 157.221, 384.489 156.643 C 385.647 156.198, 385.761 155.501, 385 153.500 C 384.235 151.487, 384.352 150.802, 385.541 150.346 C 387.295 149.673, 386.659 146.520, 384.205 143.726 C 383.047 142.408, 382.937 141.663, 383.777 140.823 C 384.458 140.142, 384.573 139.059, 384.066 138.097 C 383.604 137.219, 383.301 135.375, 383.392 134 C 383.484 132.625, 383.095 131.169, 382.529 130.765 C 381.932 130.339, 382.235 130.024, 383.250 130.015 C 384.212 130.007, 385 129.550, 385 129 C 385 128.450, 384.298 128, 383.441 128 C 382.584 128, 382.160 127.550, 382.500 127 C 382.840 126.450, 382.590 126, 381.946 126 C 381.212 126, 380.938 124.878, 381.213 123 C 381.455 121.350, 381.255 120, 380.768 120 C 380.281 120, 380.130 119.598, 380.434 119.106 C 380.738 118.615, 380.344 116.392, 379.559 114.167 C 378.262 110.492, 378.286 110.081, 379.816 109.677 C 381.292 109.287, 381.276 109.218, 379.691 109.116 C 378.696 109.052, 378.140 108.582, 378.456 108.072 C 378.771 107.562, 378.090 106.846, 376.942 106.482 C 375.794 106.117, 375.078 105.240, 375.350 104.532 C 375.621 103.823, 375.316 102.712, 374.672 102.063 C 373.773 101.156, 373.965 101.057, 375.500 101.636 C 376.987 102.198, 376.757 101.699, 374.604 99.696 C 373.011 98.213, 371.293 97, 370.787 97 C 370.280 97, 370.151 96.100, 370.500 95 C 370.878 93.808, 370.680 93, 370.008 93 C 369.389 93, 369.159 92.552, 369.497 92.004 C 369.836 91.457, 368.987 90.496, 367.611 89.869 C 364.612 88.502, 363.443 86.005, 365.216 84.754 C 366.258 84.019, 366.253 83.748, 365.190 83.321 C 363.105 82.481, 359 78.380, 359 77.135 C 359 76.511, 358.502 76, 357.893 76 C 357.284 76, 357.052 75.307, 357.377 74.460 C 357.724 73.557, 357.458 72.985, 356.734 73.078 C 354.038 73.425, 352.892 72.871, 349.844 69.750 C 348.099 67.963, 347.023 67.106, 347.454 67.846 C 348.014 68.809, 347.704 69.090, 346.368 68.832 C 345.341 68.635, 344.489 67.804, 344.476 66.986 C 344.463 66.169, 343.675 65.563, 342.726 65.639 C 341.363 65.749, 341 64.959, 341 61.889 C 341 59.750, 340.592 58, 340.094 58 C 339.595 58, 339.448 59.013, 339.767 60.250 C 340.279 62.238, 340.156 62.343, 338.705 61.154 C 337.803 60.414, 337.162 59.350, 337.282 58.791 C 337.402 58.231, 336.375 57.587, 335 57.358 C 333.625 57.129, 332.350 56.505, 332.167 55.971 C 331.983 55.437, 331.394 55, 330.858 55 C 330.321 55, 330.203 55.520, 330.595 56.155 C 331.038 56.870, 330.870 57.038, 330.155 56.595 C 329.520 56.203, 329 55.248, 329 54.472 C 329 53.634, 328.396 53.295, 327.508 53.635 C 326.669 53.957, 325.757 53.531, 325.423 52.661 C 324.974 51.489, 324.260 51.331, 322.482 52.007 C 320.939 52.593, 320.010 52.530, 319.774 51.823 C 319.577 51.231, 318.310 50.636, 316.958 50.501 C 313.435 50.149, 313.338 50.074, 315 49 C 316.282 48.172, 316.246 48.028, 314.750 48.015 C 313.788 48.007, 313 48.661, 313 49.469 C 313 50.363, 312.414 50.712, 311.500 50.362 C 310.675 50.045, 310 49.159, 310 48.393 C 310 47.627, 309.502 47, 308.893 47 C 308.284 47, 308.045 47.675, 308.362 48.500 C 309.109 50.447, 307.604 50.433, 305.981 48.477 C 305.252 47.598, 303.932 47.204, 302.859 47.545 C 301.692 47.915, 300.994 47.644, 300.985 46.817 C 300.972 45.767, 300.806 45.758, 300.164 46.769 C 299.518 47.786, 298.559 47.756, 295.321 46.613 C 293.100 45.830, 289.532 45.034, 287.392 44.844 C 285.251 44.655, 283.275 44.006, 283 43.403 C 282.725 42.799, 281.985 42.483, 281.356 42.701 M 144.269 70.693 C 145.242 70.947, 146.592 70.930, 147.269 70.656 C 147.946 70.382, 147.150 70.175, 145.500 70.195 C 143.850 70.215, 143.296 70.439, 144.269 70.693 M 353.500 71 C 353.160 71.550, 353.584 72, 354.441 72 C 355.298 72, 356 71.550, 356 71 C 356 70.450, 355.577 70, 355.059 70 C 354.541 70, 353.840 70.450, 353.500 71 M 73 72 C 73 72.550, 73.702 73, 74.559 73 C 75.416 73, 75.840 72.550, 75.500 72 C 75.160 71.450, 74.459 71, 73.941 71 C 73.423 71, 73 71.450, 73 72 M 155.574 72.333 C 155.856 73.067, 156.699 73.667, 157.448 73.667 C 158.197 73.667, 158.579 73.067, 158.298 72.333 C 158.016 71.600, 157.173 71, 156.424 71 C 155.676 71, 155.293 71.600, 155.574 72.333 M 175.749 81.250 C 176.296 81.938, 176.606 83.354, 176.438 84.397 C 176.162 86.122, 176.277 86.152, 177.704 84.725 C 179.556 82.873, 178.769 80, 176.409 80 C 175.222 80, 175.036 80.353, 175.749 81.250 M 236.150 108.950 C 236.580 110.239, 237.951 110.471, 238.075 109.275 C 238.116 108.876, 237.610 108.370, 236.950 108.150 C 236.290 107.930, 235.930 108.290, 236.150 108.950 M 228.531 114.950 C 228.163 115.545, 227.443 115.774, 226.931 115.457 C 226.419 115.141, 226 115.584, 226 116.441 C 226 118.509, 228.615 118.445, 229.417 116.357 C 230.158 114.425, 229.501 113.381, 228.531 114.950 M 209 136.264 C 209 137.142, 207.988 138.056, 206.750 138.294 L 204.500 138.728 206.781 138.864 C 208.979 138.995, 210.906 136.573, 209.624 135.290 C 209.281 134.947, 209 135.385, 209 136.264 M 253.704 145.775 C 253.334 147.704, 253.590 147.950, 255.384 147.391 C 263.104 144.989, 264.358 143.100, 258.070 143.346 C 254.835 143.473, 254.062 143.903, 253.704 145.775 M 67.110 148.112 C 64.578 150.471, 64.249 151.976, 66.750 149.758 C 67.713 148.905, 69.400 148.034, 70.500 147.824 C 72.203 147.498, 72.256 147.345, 70.860 146.794 C 69.880 146.408, 68.369 146.939, 67.110 148.112 M 245.154 152.438 C 245.345 153.355, 245.950 154.082, 246.500 154.053 C 247.984 153.974, 247.712 151.737, 246.154 151.218 C 245.313 150.938, 244.939 151.395, 245.154 152.438 M 356.580 169.538 C 356.230 170.934, 356.392 172.846, 356.941 173.788 C 357.813 175.284, 357.943 175.208, 357.970 173.191 C 357.986 171.921, 358.337 171.090, 358.750 171.345 C 359.163 171.600, 359.565 170.726, 359.644 169.404 C 359.837 166.191, 357.393 166.298, 356.580 169.538 M 224.596 169.611 C 224.143 170.791, 224.404 171.059, 225.570 170.611 C 226.447 170.275, 227.378 170, 227.641 170 C 227.903 170, 227.840 169.550, 227.500 169 C 226.583 167.516, 225.296 167.787, 224.596 169.611 M 353.820 179.217 C 353.601 180.736, 352.477 181.725, 350.250 182.361 C 346.880 183.324, 346.186 184.379, 348.132 185.581 C 348.754 185.966, 349.666 185.561, 350.158 184.682 C 350.652 183.799, 351.726 183.341, 352.556 183.660 C 353.837 184.152, 353.796 184.436, 352.279 185.586 C 351.301 186.329, 351.036 186.951, 351.691 186.968 C 353.117 187.006, 354.329 185.237, 354.750 182.500 C 354.919 181.400, 355.495 180.350, 356.029 180.167 C 357.549 179.645, 357.166 177, 355.570 177 C 354.783 177, 353.995 177.997, 353.820 179.217 M 215.500 219.208 C 212.946 220.672, 211.029 223.238, 211.689 224.306 C 211.970 224.761, 211.593 225.050, 210.850 224.948 C 210.108 224.846, 208.600 224.823, 207.500 224.897 C 205.832 225.008, 205.749 225.192, 207 226 C 209.626 227.697, 211.934 227.111, 212.568 224.587 C 212.928 223.149, 214.149 221.928, 215.587 221.568 C 216.914 221.234, 218 220.295, 218 219.481 C 218 217.736, 218.056 217.742, 215.500 219.208 M 331.583 223.866 C 331.152 224.563, 331.070 225.403, 331.400 225.733 C 332.295 226.628, 333.271 225.312, 332.787 223.862 C 332.449 222.846, 332.213 222.846, 331.583 223.866 M 197.711 231.852 C 195.390 233.383, 195.158 233.886, 196.329 234.858 C 197.853 236.123, 199.102 235.149, 200.313 231.750 C 201.079 229.603, 201.125 229.601, 197.711 231.852 M 191 238.500 C 191 239.325, 191.450 240, 192 240 C 192.550 240, 193 239.325, 193 238.500 C 193 237.675, 192.550 237, 192 237 C 191.450 237, 191 237.675, 191 238.500 M 182.394 245.089 C 182.269 248.496, 182.562 248.688, 183.944 246.105 C 184.667 244.754, 184.605 243.918, 183.729 243.194 C 182.808 242.432, 182.473 242.907, 182.394 245.089 M 171 251.433 C 171 252.295, 170.502 253, 169.893 253 C 169.284 253, 169.052 253.692, 169.376 254.538 C 169.735 255.473, 169.287 256.317, 168.233 256.690 C 167.280 257.028, 165.763 257.935, 164.862 258.706 C 163.961 259.477, 162.364 260.172, 161.314 260.251 C 159.776 260.367, 159.491 260.986, 159.851 263.436 C 160.253 266.177, 160.405 266.292, 161.398 264.600 C 163.790 260.526, 166.966 257.773, 168.566 258.387 C 169.659 258.806, 170.355 258.357, 170.709 257.004 C 170.997 255.902, 171.801 255, 172.494 255 C 173.803 255, 176.583 252.219, 175.893 251.600 C 175.677 251.407, 174.488 250.937, 173.250 250.557 C 171.580 250.043, 171 250.269, 171 251.433 M 153.235 267.383 C 152.435 269.139, 152.401 270.130, 153.125 270.577 C 154.855 271.647, 156.131 269.529, 155.228 267.088 L 154.395 264.837 153.235 267.383 M 273.750 279.758 C 271.857 280.178, 271.619 280.871, 272.765 282.624 C 273.600 283.901, 278 282.653, 278 281.139 C 278 279.932, 275.956 279.268, 273.750 279.758 M 166 288.500 C 165.477 289.875, 164.588 291, 164.025 291 C 162.378 291, 162.845 293.636, 164.750 295.095 C 165.713 295.831, 166.178 296.052, 165.785 295.586 C 165.392 295.119, 165.586 293.784, 166.217 292.619 C 167.409 290.416, 168.203 286, 167.407 286 C 167.156 286, 166.523 287.125, 166 288.500 M 260.667 293.667 C 259.358 294.975, 260.033 295.804, 261.989 295.293 C 263.083 295.007, 263.731 294.374, 263.430 293.886 C 262.780 292.835, 261.593 292.740, 260.667 293.667 M 194.397 316.554 C 194.007 318.110, 193.451 318.730, 193.041 318.067 C 192.605 317.360, 191.946 317.823, 191.267 319.314 C 190.642 320.684, 190.546 322.266, 191.040 323.064 C 191.734 324.187, 192.015 324.125, 192.551 322.728 C 192.913 321.784, 193.561 321.229, 193.991 321.495 C 194.422 321.761, 195.387 321.235, 196.137 320.326 C 197.235 318.996, 197.249 318.590, 196.208 318.240 C 195.259 317.921, 195.206 317.457, 196.007 316.492 C 196.738 315.611, 196.761 314.970, 196.078 314.548 C 195.517 314.202, 194.761 315.104, 194.397 316.554" stroke="none" fill="#fffcfc" fill-rule="evenodd"/><path d="" stroke="none" fill="#fcfcfc" fill-rule="evenodd"/></svg>