<svg width="51" height="51" viewBox="0 0 51 51" fill="none" xmlns="http://www.w3.org/2000/svg">
<path d="M25.5 3.1875C13.1783 3.1875 3.1875 13.1783 3.1875 25.5C3.1875 37.8217 13.1783 47.8125 25.5 47.8125C37.8217 47.8125 47.8125 37.8217 47.8125 25.5C47.8125 13.1783 37.8217 3.1875 25.5 3.1875ZM27.0938 36.2578C27.0938 36.477 26.9145 36.6562 26.6953 36.6562H24.3047C24.0855 36.6562 23.9062 36.477 23.9062 36.2578V22.7109C23.9062 22.4918 24.0855 22.3125 24.3047 22.3125H26.6953C26.9145 22.3125 27.0938 22.4918 27.0938 22.7109V36.2578ZM25.5 19.125C24.8744 19.1122 24.2788 18.8547 23.8409 18.4078C23.4029 17.9609 23.1577 17.3601 23.1577 16.7344C23.1577 16.1087 23.4029 15.5079 23.8409 15.0609C24.2788 14.614 24.8744 14.3565 25.5 14.3438C26.1256 14.3565 26.7212 14.614 27.1591 15.0609C27.5971 15.5079 27.8423 16.1087 27.8423 16.7344C27.8423 17.3601 27.5971 17.9609 27.1591 18.4078C26.7212 18.8547 26.1256 19.1122 25.5 19.125Z" fill="#898A96"/>
</svg>
