<svg xmlns="http://www.w3.org/2000/svg" width="426" height="426" viewBox="0 0 426 426" version="1.1" >
    <g transform="rotate(180, 213, 213)">
        <path d="M 203.324 31.401 C 203.866 32.815, 202.817 32.880, 199.922 31.610 C 199.055 31.230, 197.172 31.364, 195.739 31.909 C 193.928 32.598, 193.022 32.567, 192.769 31.807 C 192.516 31.047, 191.666 31.108, 189.986 32.008 C 186.511 33.867, 180 34.279, 180 32.638 C 180 31.921, 179.349 31.333, 178.554 31.333 C 177.494 31.333, 177.355 31.794, 178.033 33.062 C 179.195 35.233, 177.092 37.293, 175.020 36.013 C 174.243 35.532, 172.909 35.446, 172.054 35.820 C 171.199 36.194, 168.925 36.500, 167 36.500 C 164.858 36.500, 162.918 37.196, 162 38.294 C 161.175 39.281, 159.375 40.214, 158 40.369 C 154.633 40.746, 149.023 43.766, 146.843 46.374 L 145.067 48.500 145.033 45.867 C 145.011 44.141, 144.347 43.063, 143.106 42.738 C 141.218 42.244, 140.881 43.420, 142.272 45.645 C 142.669 46.279, 142.298 47.055, 141.442 47.384 C 140.557 47.724, 140.157 47.555, 140.507 46.989 C 141.515 45.358, 139.516 45.872, 137.439 47.779 C 136.372 48.757, 134.713 49.399, 133.750 49.205 C 132.699 48.994, 132 49.458, 132 50.368 C 132 51.201, 131.480 52.203, 130.845 52.595 C 130.134 53.035, 129.962 52.870, 130.397 52.166 C 130.854 51.427, 130.557 51.233, 129.558 51.616 C 128.707 51.943, 128.292 52.663, 128.634 53.217 C 129.548 54.696, 126.865 56.004, 124.258 55.350 C 122.527 54.915, 121.993 55.217, 121.968 56.642 C 121.938 58.433, 121.884 58.431, 120.496 56.597 C 119.097 54.749, 119.034 54.748, 118.341 56.553 C 117.025 59.984, 113.696 63.038, 111.897 62.467 C 110.946 62.166, 109.891 62.367, 109.552 62.916 C 109.213 63.464, 108.308 63.672, 107.541 63.377 C 106.532 62.990, 106.298 63.422, 106.693 64.936 C 107.107 66.517, 106.869 66.887, 105.722 66.447 C 104.886 66.126, 103.905 66.344, 103.542 66.932 C 103.171 67.532, 103.638 68, 104.608 68 C 106.509 68, 105.966 68.999, 103.842 69.409 C 100.791 69.998, 97 72.418, 97 73.777 C 97 74.741, 96.324 75.056, 95 74.710 C 93.900 74.423, 93 74.595, 93 75.094 C 93 75.592, 93.375 76, 93.833 76 C 94.292 76, 94.667 76.675, 94.667 77.500 C 94.667 79.231, 93.419 79.487, 92.469 77.950 C 92.069 77.303, 91.126 77.702, 90.007 78.992 C 88.673 80.530, 88.039 80.741, 87.606 79.791 C 87.283 79.081, 87.246 79.437, 87.523 80.582 C 87.840 81.889, 87.278 83.343, 86.014 84.487 C 84.906 85.490, 84 86.942, 84 87.714 C 84 88.486, 83.550 88.840, 83 88.500 C 82.450 88.160, 82 88.569, 82 89.410 C 82 90.308, 81.423 90.716, 80.601 90.400 C 79.832 90.105, 78.862 90.414, 78.447 91.086 C 77.990 91.825, 78.107 92.052, 78.741 91.660 C 79.318 91.303, 80.043 91.669, 80.352 92.474 C 81.083 94.380, 80.268 94.764, 75.875 94.584 C 72.639 94.452, 72.250 94.703, 72.250 96.926 C 72.250 98.296, 71.741 99.586, 71.119 99.794 C 70.497 100.001, 70.261 100.613, 70.594 101.153 C 70.928 101.693, 70.256 102.382, 69.101 102.684 C 67.945 102.986, 67 103.840, 67 104.581 C 67 106.005, 63.615 108.282, 62.764 107.430 C 62.489 107.156, 62.486 108.093, 62.758 109.513 C 63.091 111.258, 62.674 112.518, 61.470 113.398 C 60.371 114.202, 59.889 115.467, 60.211 116.701 C 60.932 119.457, 57.535 123.925, 55.932 122.328 C 55.285 121.684, 54.123 121.399, 53.349 121.696 C 52.214 122.132, 52.286 122.498, 53.721 123.586 C 54.739 124.359, 54.979 124.950, 54.281 124.968 C 53.611 124.986, 53.306 125.634, 53.603 126.409 C 53.901 127.184, 52.787 129.691, 51.129 131.981 C 48.971 134.960, 48.220 136.991, 48.490 139.124 C 48.792 141.510, 48.379 142.326, 46.414 143.221 C 44.440 144.121, 44.004 144.990, 44.184 147.665 C 44.307 149.495, 43.866 151.534, 43.204 152.196 C 42.270 153.130, 42 153.131, 42 152.200 C 42 151.540, 41.512 151, 40.917 151 C 40.321 151, 40.037 151.563, 40.286 152.250 C 40.535 152.938, 40.067 154.271, 39.247 155.214 C 37.922 156.737, 37.934 157.378, 39.357 160.935 C 41.107 165.308, 40.660 167.761, 37.732 169.866 C 36.366 170.847, 36.137 171.537, 36.916 172.316 C 38.175 173.575, 38.397 176.363, 37.178 175.610 C 36.726 175.331, 35.686 175.886, 34.865 176.845 C 33.099 178.908, 31.335 181.811, 32.471 180.785 C 32.907 180.392, 34.116 180.527, 35.159 181.085 C 36.529 181.818, 36.993 183.032, 36.830 185.450 C 36.627 188.469, 36.385 188.717, 34.380 187.954 C 32.765 187.340, 31.791 187.558, 30.827 188.746 C 30.016 189.748, 29.959 190.109, 30.681 189.676 C 31.330 189.286, 32.143 189.423, 32.488 189.980 C 33.476 191.579, 33.956 195, 33.193 195 C 32.812 195, 32.515 196.463, 32.533 198.250 C 32.552 200.037, 32.102 201.838, 31.533 202.250 C 30.858 202.740, 30.989 203.315, 31.912 203.909 C 33.107 204.678, 33.068 205.075, 31.662 206.481 C 29.929 208.214, 29.420 209.477, 30.798 208.625 C 31.237 208.354, 32.183 208.495, 32.901 208.939 C 33.853 209.527, 33.931 210.261, 33.188 211.649 C 32.510 212.916, 32.501 214.145, 33.164 215.328 C 33.838 216.534, 33.807 217.528, 33.067 218.420 C 32.260 219.392, 32.367 220.060, 33.477 220.981 C 34.965 222.216, 34.598 224.487, 33.063 223.539 C 31.895 222.817, 32.319 227.367, 33.500 228.235 C 34.119 228.690, 34.024 228.975, 33.250 228.985 C 31.778 229.003, 31.556 234.156, 32.966 235.566 C 33.498 236.098, 34.043 237.988, 34.179 239.766 C 34.315 241.545, 34.764 243, 35.178 243 C 35.591 243, 36.447 243.966, 37.078 245.147 C 38.012 246.891, 37.925 247.462, 36.614 248.196 C 34.444 249.411, 34.581 251.311, 36.996 253.497 C 38.466 254.827, 38.712 255.642, 37.927 256.588 C 37.172 257.497, 37.174 258.457, 37.933 259.875 C 38.656 261.226, 38.673 262.084, 37.986 262.508 C 36.358 263.515, 37.815 264.861, 39.933 264.307 C 41.504 263.896, 41.760 264.203, 41.304 265.947 C 40.939 267.340, 41.367 268.548, 42.524 269.394 C 43.504 270.110, 43.985 271.215, 43.594 271.848 C 43.202 272.482, 43.359 273, 43.941 273 C 44.523 273, 45 273.498, 45 274.107 C 45 274.716, 44.428 274.995, 43.730 274.727 C 42.852 274.390, 42.430 275.395, 42.362 277.987 C 42.305 280.154, 42.735 281.724, 43.382 281.709 C 47.072 281.629, 47.708 282.076, 47.258 284.431 C 46.958 285.999, 47.527 287.649, 48.862 289.082 C 50 290.304, 50.688 291.696, 50.391 292.176 C 50.094 292.657, 50.447 292.926, 51.176 292.775 C 52.006 292.603, 52.393 293.283, 52.213 294.597 C 52.055 295.750, 52.618 297.268, 53.463 297.969 C 54.308 298.671, 55 300.331, 55 301.658 C 55 303.817, 55.226 303.950, 57.152 302.919 C 58.974 301.944, 59.210 302.010, 58.695 303.352 C 58.361 304.223, 58.518 305.202, 59.044 305.527 C 59.570 305.852, 60 306.943, 60 307.952 C 60 308.961, 60.704 310.056, 61.563 310.386 C 62.423 310.716, 62.847 311.439, 62.504 311.993 C 62.162 312.547, 62.306 313, 62.824 313 C 64.592 313, 64.883 316.874, 63.143 317.244 C 61.929 317.502, 62.283 318.027, 64.500 319.257 C 66.150 320.171, 66.911 320.938, 66.191 320.960 C 65.471 320.982, 65.177 321.477, 65.537 322.060 C 65.952 322.732, 66.659 322.481, 67.469 321.373 C 68.660 319.745, 68.794 319.775, 69.441 321.813 C 69.822 323.016, 70.822 324, 71.661 324 C 72.500 324, 73.423 324.900, 73.710 326 C 73.998 327.100, 74.639 328, 75.136 328 C 75.632 328, 75.771 329.064, 75.445 330.364 C 75.036 331.992, 75.342 332.917, 76.426 333.333 C 77.292 333.665, 78 334.657, 78 335.536 C 78 336.680, 78.569 336.954, 80 336.500 C 81.581 335.998, 82 336.320, 82 338.040 C 82 339.562, 82.450 340.041, 83.500 339.638 C 84.584 339.223, 85 339.748, 85 341.531 C 85 342.889, 85.420 344, 85.933 344 C 86.446 344, 87.152 344.903, 87.502 346.007 C 87.852 347.110, 90.031 348.875, 92.344 349.929 C 97.021 352.060, 100.508 355.369, 99.609 356.824 C 99.286 357.347, 99.579 357.754, 100.261 357.730 C 103.599 357.609, 105 358.133, 105 359.500 C 105 360.325, 105.618 361, 106.374 361 C 107.129 361, 109.688 362.774, 112.061 364.943 C 114.434 367.112, 116.703 368.684, 117.103 368.436 C 118.459 367.599, 123 369.939, 123 371.475 C 123 372.314, 123.498 373, 124.107 373 C 124.716 373, 124.964 372.348, 124.658 371.551 C 124.284 370.577, 124.582 370.286, 125.569 370.665 C 126.375 370.974, 126.915 371.964, 126.768 372.864 C 126.560 374.131, 127.372 374.519, 130.369 374.586 C 132.706 374.639, 134.572 375.271, 135.083 376.183 C 135.548 377.014, 137.356 377.734, 139.101 377.784 C 142.562 377.882, 145.435 379.907, 143.250 380.708 C 142.563 380.960, 142 381.579, 142 382.083 C 142 383.227, 144.713 383.300, 145.167 382.168 C 145.350 381.711, 146.979 381.728, 148.786 382.206 C 150.593 382.684, 151.804 383.509, 151.477 384.038 C 151.150 384.567, 151.661 385, 152.612 385 C 153.564 385, 155.165 385.745, 156.171 386.655 C 157.177 387.565, 158 387.888, 158 387.372 C 158 386.305, 162.024 386.279, 163.731 387.334 C 164.353 387.718, 165.144 387.575, 165.490 387.016 C 166.621 385.185, 168.246 385.952, 167.695 388.057 C 167.242 389.791, 167.392 389.919, 168.655 388.871 C 169.853 387.877, 170.315 387.891, 170.964 388.942 C 171.411 389.665, 172.277 389.947, 172.888 389.569 C 173.500 389.191, 174 389.286, 174 389.780 C 174 391.216, 178.829 393.086, 179.545 391.928 C 180.230 390.819, 188.998 391.085, 188.999 392.215 C 189 392.608, 190.012 393.469, 191.250 394.129 C 193.157 395.145, 193.323 395.112, 192.336 393.914 C 191.390 392.766, 191.638 392.472, 193.651 392.352 C 195.014 392.270, 195.895 392.439, 195.607 392.726 C 194.649 393.684, 199.462 396.858, 200.531 395.973 C 202.868 394.037, 210.761 393.194, 218.500 394.055 C 221.349 394.372, 222.428 394.140, 222.250 393.250 C 221.934 391.670, 222.162 391.684, 225.564 393.449 C 227.100 394.246, 228.726 394.669, 229.178 394.390 C 229.630 394.110, 230.007 394.471, 230.015 395.191 C 230.025 395.990, 230.317 396.111, 230.765 395.500 C 231.169 394.950, 232.625 393.865, 234 393.089 C 236.206 391.845, 236.355 391.855, 235.266 393.173 C 234.226 394.432, 234.461 394.685, 236.766 394.783 C 238.270 394.847, 240.400 395.035, 241.500 395.200 C 243.527 395.504, 243.695 394.904, 242.467 391.750 C 241.985 390.511, 242.273 390, 243.452 390 C 244.368 390, 244.840 390.450, 244.500 391 C 243.568 392.509, 245.658 392.199, 247.266 390.591 C 248.133 389.724, 249.199 389.505, 250.034 390.021 C 250.785 390.485, 252.169 390.445, 253.130 389.930 C 255.475 388.676, 256.267 388.759, 255.395 390.170 C 254.902 390.968, 255.227 391.127, 256.418 390.670 C 257.378 390.301, 258.749 390, 259.465 390 C 260.181 390, 260.977 389.197, 261.234 388.214 C 261.564 386.953, 262.837 386.352, 265.570 386.168 C 267.698 386.025, 269.824 385.366, 270.296 384.704 C 270.959 383.772, 271.267 383.782, 271.659 384.750 C 271.938 385.438, 272.606 386, 273.142 386 C 273.679 386, 273.796 385.479, 273.403 384.842 C 272.911 384.046, 273.373 383.864, 274.885 384.260 C 276.644 384.720, 276.971 384.486, 276.527 383.084 C 275.848 380.947, 278.982 380.625, 280.500 382.676 C 281.306 383.764, 282.035 383.529, 284.262 381.461 C 285.781 380.051, 287.469 379.172, 288.012 379.507 C 288.555 379.843, 289 379.361, 289 378.437 C 289 377.143, 289.310 377.012, 290.342 377.869 C 291.946 379.200, 293.077 378.364, 292.324 376.402 C 292.028 375.631, 292.284 375, 292.893 375 C 293.502 375, 294 375.450, 294 376 C 294 376.550, 294.498 377, 295.107 377 C 295.716 377, 295.984 376.400, 295.702 375.667 C 295.421 374.933, 295.823 374.333, 296.595 374.333 C 297.368 374.333, 298 374.960, 298 375.726 C 298 376.491, 298.430 376.852, 298.956 376.527 C 299.482 376.202, 299.677 375.321, 299.388 374.569 C 299.100 373.817, 299.352 372.901, 299.948 372.532 C 300.545 372.163, 300.796 371.480, 300.508 371.012 C 300.219 370.545, 301.449 369.868, 303.241 369.507 C 308.867 368.374, 310 367.900, 310 366.677 C 310 364.947, 316.271 362.314, 316.777 363.831 C 316.991 364.474, 317.894 365, 318.783 365 C 320.041 365, 320.133 364.733, 319.200 363.800 C 317.245 361.845, 317.735 359.697, 320 360.290 C 321.100 360.577, 322 360.386, 322 359.865 C 322 359.343, 322.900 357.950, 324 356.770 C 325.751 354.890, 326 354.840, 326 356.370 C 326 357.332, 326.451 357.839, 327.003 357.498 C 327.607 357.125, 327.661 356.208, 327.138 355.189 C 326.100 353.168, 326.774 350.742, 328.139 351.586 C 328.672 351.915, 330.452 350.777, 332.095 349.058 C 334.998 346.020, 337.619 345.457, 339.344 347.500 C 339.827 348.072, 339.924 347.689, 339.570 346.605 C 338.895 344.535, 341.451 341, 343.624 341 C 344.380 341, 344.693 340.364, 344.362 339.500 C 343.696 337.766, 345.102 337.502, 346.667 339.067 C 347.424 339.824, 347.910 339.678, 348.336 338.567 C 348.667 337.705, 348.501 337, 347.969 337 C 345.931 337, 347.141 333.925, 350.501 330.565 C 352.622 328.445, 354.594 327.291, 355.501 327.639 C 356.512 328.027, 357 327.589, 357 326.296 C 357 323.868, 360.769 319.739, 362.185 320.614 C 362.891 321.051, 363.107 320.044, 362.826 317.633 C 362.442 314.342, 362.597 314.055, 364.443 314.640 C 366.272 315.221, 366.337 315.111, 365.068 313.581 C 363.778 312.027, 363.891 311.934, 366.325 312.546 C 369.126 313.248, 369.810 312.210, 367.842 310.242 C 366.966 309.366, 366.986 308.721, 367.928 307.586 C 368.613 306.762, 368.882 305.618, 368.527 305.044 C 368.172 304.470, 368.572 304, 369.415 304 C 370.259 304, 371.634 302.676, 372.471 301.057 C 373.548 298.973, 374.578 298.226, 375.996 298.499 C 377.098 298.712, 378 298.461, 378 297.943 C 378 297.424, 377.550 297, 377 297 C 376.450 297, 376 296.325, 376 295.500 C 376 294.675, 376.340 294, 376.756 294 C 378.497 294, 380.053 288.271, 379.038 285.599 C 378.040 282.974, 379.366 279, 381.241 279 C 381.658 279, 382 278.325, 382 277.500 C 382 275.684, 383.635 275.509, 384.338 277.250 C 384.656 278.039, 384.871 277.895, 384.921 276.857 C 384.964 275.953, 385.775 274.917, 386.722 274.553 C 388.045 274.046, 388.144 273.707, 387.152 273.094 C 386.105 272.447, 386.095 271.160, 387.102 266.286 C 388.108 261.414, 388.668 260.362, 390.059 260.726 C 391.002 260.972, 392.120 260.616, 392.542 259.933 C 393.009 259.176, 392.899 258.945, 392.259 259.340 C 391.682 259.697, 390.966 259.353, 390.668 258.577 C 390.370 257.801, 390.822 256.899, 391.671 256.573 C 393.053 256.043, 393.057 255.735, 391.710 253.681 C 390.125 251.261, 390.487 246, 392.239 246 C 392.811 246, 392.712 245.358, 392.010 244.512 C 391.004 243.299, 391.103 242.898, 392.548 242.343 C 394.135 241.734, 394.087 241.576, 392.096 240.840 C 390.873 240.387, 390.157 239.556, 390.505 238.992 C 390.853 238.429, 391.627 238.269, 392.224 238.638 C 392.906 239.060, 393.018 238.838, 392.526 238.043 C 392.074 237.311, 392.304 236.430, 393.071 235.956 C 393.904 235.441, 394.308 233.585, 394.154 230.980 C 393.970 227.867, 394.233 226.982, 395.204 227.450 C 395.917 227.794, 395.746 227.519, 394.825 226.840 C 393.277 225.699, 393.305 225.470, 395.186 223.839 C 396.933 222.324, 397.070 221.638, 396.151 219.003 C 395.522 217.199, 395.476 216.176, 396.040 216.525 C 396.568 216.851, 397 216.641, 397 216.059 C 397 215.477, 396.239 215, 395.309 215 C 393.796 215, 393.812 214.858, 395.460 213.653 C 396.683 212.759, 396.930 212.075, 396.195 211.621 C 395.586 211.244, 395.343 210.270, 395.656 209.455 C 395.968 208.641, 395.779 207.418, 395.235 206.737 C 394.167 205.400, 394.231 200.053, 395.338 198.263 C 395.712 197.657, 395.307 196.449, 394.437 195.579 C 393.017 194.160, 393.009 193.688, 394.359 190.982 C 395.319 189.057, 395.436 188.206, 394.682 188.630 C 393.777 189.138, 393.775 188.996, 394.672 188.025 C 396.042 186.541, 395.336 184, 393.554 184 C 392.876 184, 391.808 182.875, 391.182 181.500 C 390.247 179.447, 390.307 179, 391.521 179 C 393.202 179, 393.503 177.429, 392 176.500 C 391.450 176.160, 391 175.027, 391 173.981 C 391 172.936, 389.797 170.965, 388.327 169.602 C 386.095 167.533, 385.863 166.870, 386.922 165.594 C 387.936 164.373, 387.950 162.633, 386.994 156.967 C 386.336 153.063, 385.546 150.121, 385.238 150.429 C 384.732 150.935, 383.310 148.966, 381.359 145.060 C 380.955 144.251, 381.157 143.448, 381.820 143.227 C 383.326 142.725, 383.376 140.916, 381.875 141.250 C 381.256 141.387, 380.544 140.938, 380.292 140.250 C 380.040 139.563, 380.572 139, 381.476 139 C 382.379 139, 382.866 138.592, 382.558 138.094 C 382.250 137.596, 381.162 137.406, 380.140 137.674 C 378.350 138.142, 377.929 137.325, 376.448 130.500 C 376.328 129.950, 376.126 129.050, 375.997 128.500 C 375.868 127.950, 375.828 127.129, 375.906 126.676 C 375.985 126.222, 375.641 126.104, 375.141 126.413 C 374.641 126.722, 373.668 125.613, 372.979 123.949 C 372.290 122.285, 370.875 120.468, 369.835 119.912 C 368.795 119.355, 368.251 118.403, 368.627 117.795 C 369.039 117.128, 368.851 116.974, 368.153 117.406 C 367.453 117.838, 366.627 117.148, 366.060 115.657 C 365.545 114.303, 364.638 112.894, 364.045 112.528 C 363.452 112.162, 363.184 111.511, 363.449 111.082 C 363.714 110.654, 363.037 109.343, 361.945 108.171 C 360.852 106.998, 359.927 105.693, 359.889 105.269 C 359.768 103.931, 358.537 102.154, 357.500 101.821 C 356.950 101.644, 356.590 100.812, 356.699 99.972 C 356.808 99.131, 355.601 97.869, 354.017 97.168 C 351.894 96.228, 351.241 95.343, 351.538 93.804 C 351.759 92.655, 351.517 90.992, 351 90.108 C 350.352 88.999, 350.051 88.912, 350.030 89.827 C 350.014 90.556, 348.835 89.769, 347.411 88.077 C 345.856 86.228, 343.872 85, 342.442 85 C 340.865 85, 340.236 84.549, 340.577 83.660 C 340.860 82.923, 340.400 81.747, 339.557 81.047 C 338.713 80.346, 338.316 79.298, 338.675 78.717 C 339.083 78.057, 338.699 77.902, 337.652 78.303 C 336.288 78.827, 332.021 77.692, 330.073 76.287 C 329.838 76.118, 330.513 75.272, 331.573 74.408 C 333.054 73.201, 333.121 72.954, 331.862 73.344 C 330.824 73.665, 329.177 72.596, 327.367 70.426 C 324.283 66.726, 322.416 65.939, 323.395 68.750 C 323.903 70.209, 323.755 70.177, 322.502 68.559 C 321.676 67.491, 321 66.284, 321 65.876 C 321 65.468, 320.093 64.847, 318.985 64.495 C 317.877 64.144, 317.265 63.380, 317.625 62.798 C 318.002 62.187, 317.692 61.949, 316.889 62.233 C 315.092 62.870, 309.876 60.235, 308.182 57.834 C 307.456 56.807, 306.444 56.226, 305.932 56.542 C 305.419 56.859, 305 56.684, 305 56.153 C 305 55.622, 304.167 55.405, 303.149 55.671 C 302.131 55.937, 300.588 55.445, 299.721 54.578 C 298.853 53.710, 297.266 53, 296.194 53 C 295.122 53, 293.627 52.239, 292.872 51.308 C 291.940 50.158, 291.901 49.857, 292.750 50.367 C 293.438 50.780, 294 50.641, 294 50.059 C 294 49.477, 293.277 49, 292.393 49 C 291.375 49, 290.997 48.450, 291.362 47.500 C 292.018 45.788, 289.936 45.464, 288.367 47.033 C 287.043 48.357, 284 47.214, 284 45.393 C 284 44.627, 283.325 44, 282.500 44 C 281.675 44, 281 43.502, 281 42.893 C 281 42.244, 280.276 42.070, 279.250 42.473 C 278.288 42.850, 275.810 43.285, 273.744 43.440 C 270.576 43.676, 270.174 43.495, 271.179 42.284 C 272.115 41.157, 272.062 40.652, 270.936 39.939 C 270.146 39.439, 268.825 39.017, 268 39 C 266.667 38.973, 266.667 38.862, 268 38 C 268.825 37.467, 269.027 37.024, 268.450 37.015 C 267.872 37.007, 266.895 37.505, 266.277 38.123 C 265.447 38.953, 264.471 38.562, 262.532 36.623 C 259.470 33.561, 257.841 33.062, 260.500 36 C 261.495 37.100, 261.817 38, 261.214 38 C 260.611 38, 259.835 37.543, 259.490 36.984 C 259.144 36.425, 258.432 36.233, 257.906 36.558 C 257.381 36.883, 257.074 36.553, 257.225 35.824 C 257.501 34.495, 257.064 34.476, 250.116 35.516 C 248.254 35.794, 246.137 35.528, 245.410 34.925 C 244.683 34.322, 243.666 34.089, 243.150 34.407 C 242.635 34.726, 240.365 34.334, 238.106 33.538 C 235.848 32.741, 233.986 32.406, 233.968 32.794 C 233.951 33.182, 233.361 32.743, 232.657 31.817 C 231.784 30.669, 230.444 30.286, 228.439 30.611 C 221.597 31.719, 217.009 31.824, 216.429 30.885 C 216.064 30.295, 215.242 30.627, 214.436 31.690 C 213.123 33.422, 213.062 33.416, 213.032 31.550 C 213.009 30.131, 212.700 29.900, 211.899 30.701 C 211.163 31.437, 209.755 31.503, 207.655 30.901 C 203.397 29.680, 202.694 29.761, 203.324 31.401 M 205.620 127.131 C 204.746 128.379, 203.506 129.024, 202.628 128.688 C 200.538 127.885, 199.982 130.237, 201.912 131.718 C 203.291 132.776, 203.171 132.944, 201 132.990 L 198.500 133.044 201 135 C 202.983 136.551, 203.145 136.960, 201.785 136.978 C 199.800 137.004, 198.043 139.861, 198.765 141.889 C 199.066 142.734, 198.819 143.006, 198.136 142.584 C 197.396 142.127, 197.089 142.801, 197.235 144.563 C 197.524 148.062, 204.207 155.242, 206.393 154.403 C 207.277 154.064, 208 154.200, 208 154.706 C 208 155.212, 210.001 155.730, 212.447 155.856 C 216.806 156.082, 216.906 156.017, 217.558 152.543 C 217.923 150.594, 218.571 149, 218.998 149 C 219.424 149, 219.971 147.650, 220.213 146 C 220.455 144.350, 220.326 143, 219.926 143 C 219.526 143, 219.293 141.650, 219.407 140 C 219.521 138.350, 219.139 136.971, 218.557 136.937 C 217.976 136.902, 218.625 136.421, 220 135.868 C 222.406 134.900, 222.429 134.810, 220.603 133.463 C 219.559 132.694, 218.322 132.301, 217.853 132.591 C 217.077 133.071, 216.585 131.631, 216.882 129.750 C 216.947 129.338, 216.311 129, 215.469 129 C 214.626 129, 213.673 128.312, 213.350 127.470 C 212.964 126.463, 212.078 126.158, 210.756 126.577 C 209.424 127, 208.979 126.842, 209.434 126.107 C 210.722 124.022, 207.121 124.990, 205.620 127.131 M 65.473 154.044 C 65.118 154.618, 65.348 155.714, 65.983 156.480 C 66.860 157.536, 66.841 158.430, 65.906 160.186 C 64.811 162.241, 64.848 162.356, 66.236 161.211 C 67.105 160.494, 67.800 158.383, 67.800 156.461 C 67.800 153.067, 66.751 151.977, 65.473 154.044 M 61 170.441 C 61 171.298, 61.450 172, 62 172 C 62.550 172, 63 171.577, 63 171.059 C 63 170.541, 62.550 169.840, 62 169.500 C 61.450 169.160, 61 169.584, 61 170.441 M 59 177.929 C 59 178.439, 58.282 179.575, 57.405 180.452 C 55.946 181.911, 56.073 182.026, 58.905 181.810 C 60.607 181.681, 62 181.172, 62 180.680 C 62 180.188, 61.325 180.045, 60.500 180.362 C 58.463 181.143, 58.606 180.020, 60.750 178.392 C 62.417 177.127, 62.417 177.062, 60.750 177.032 C 59.788 177.014, 59 177.418, 59 177.929 M 207.631 184.855 C 206.732 185.849, 206.334 187.035, 206.748 187.491 C 207.162 187.948, 206.887 187.966, 206.138 187.532 C 205.322 187.060, 204.427 187.296, 203.904 188.122 C 203.218 189.204, 203.027 189.218, 203.015 188.191 C 202.993 186.261, 201.202 187.708, 199.472 191.055 C 197.604 194.666, 198.445 199.705, 200.615 197.904 C 201.377 197.272, 202.033 196.923, 202.074 197.128 C 202.115 197.332, 202.335 198.497, 202.563 199.715 C 202.791 200.934, 203.095 202.509, 203.238 203.215 C 203.390 203.960, 202.343 204.633, 200.750 204.816 C 197.754 205.161, 197.346 205.946, 199.200 207.800 C 200.133 208.733, 200.042 209, 198.788 209 C 197.902 209, 197.260 209.566, 197.361 210.257 C 197.658 212.276, 200.618 216.049, 201.340 215.327 C 201.703 214.964, 202 215.144, 202 215.726 C 202 216.309, 201.294 217.057, 200.431 217.388 C 199.357 217.800, 199.058 218.701, 199.483 220.245 C 200.086 222.436, 200.059 222.445, 198.552 220.559 C 197.250 218.931, 197 218.880, 197 220.241 C 197 221.135, 197.900 222.151, 199 222.500 C 201.245 223.212, 201.721 225, 199.667 225 C 198.933 225, 198.333 225.694, 198.333 226.543 C 198.333 227.418, 198.911 227.865, 199.667 227.574 C 201.385 226.915, 201.315 227.999, 199.485 230.418 C 198.408 231.841, 198.319 232.680, 199.139 233.668 C 199.990 234.693, 199.832 235, 198.456 235 C 197.472 235, 196.960 235.293, 197.318 235.651 C 197.676 236.009, 197.258 236.822, 196.390 237.457 C 194.837 238.593, 195.307 240.519, 198.779 247.244 C 198.990 247.653, 197.991 248.433, 196.558 248.978 C 194.450 249.779, 194.069 250.427, 194.558 252.375 C 194.909 253.774, 194.665 255.089, 193.974 255.516 C 193.083 256.067, 193.125 256.459, 194.143 257.088 C 195.536 257.949, 196.350 267, 195.035 267 C 194.644 267, 194.250 268.954, 194.160 271.343 C 194.039 274.539, 194.516 276.157, 195.966 277.469 C 197.318 278.693, 197.675 279.761, 197.103 280.876 C 196.645 281.769, 196.500 283.175, 196.781 284 C 197.180 285.170, 196.857 285.115, 195.315 283.748 C 194.227 282.784, 193.037 282.297, 192.669 282.664 C 191.516 283.817, 191.937 285, 193.500 285 C 195.274 285, 195.347 285.482, 193.965 288.066 C 193.317 289.277, 193.293 290, 193.903 290 C 194.438 290, 194.893 290.788, 194.915 291.750 C 195.022 296.568, 196.688 302.478, 197.868 302.225 C 198.572 302.074, 198.889 302.371, 198.571 302.885 C 196.861 305.652, 201.466 307.795, 204.681 305.727 C 205.330 305.309, 206.144 305.425, 206.490 305.984 C 206.835 306.543, 207.597 307, 208.181 307 C 208.866 307, 208.815 306.482, 208.036 305.544 C 206.787 304.039, 207.515 301.582, 208.947 302.467 C 209.936 303.079, 211.609 296.353, 212.172 289.500 C 212.426 286.416, 210.884 280, 209.889 280 C 209.400 280, 209 279.550, 209 279 C 209 278.450, 209.675 278, 210.500 278 C 211.325 278, 212.079 277.100, 212.175 276 C 212.271 274.900, 212.484 272.538, 212.647 270.750 C 213.618 260.130, 212.811 253.494, 210.678 254.560 C 210.030 254.883, 210.287 254.503, 211.250 253.714 C 212.213 252.925, 213.007 251.654, 213.015 250.890 C 213.028 249.772, 213.236 249.793, 214.081 251 C 215.501 253.028, 214.395 248.724, 212.314 244.125 C 210.665 240.480, 211.755 238.585, 214.823 239.762 C 215.817 240.144, 216.078 239.934, 215.590 239.145 C 215.184 238.488, 214.689 236.049, 214.490 233.725 C 213.963 227.577, 213.404 224.463, 212.591 223.147 C 212.189 222.497, 212.562 221.722, 213.437 221.386 C 215.569 220.568, 215.639 209.782, 213.526 207.669 C 212.227 206.369, 212.234 206.124, 213.589 205.604 C 214.435 205.280, 214.879 204.613, 214.575 204.122 C 214.272 203.631, 214.529 201.780, 215.147 200.007 C 216.046 197.430, 215.993 196.613, 214.885 195.923 C 213.784 195.238, 213.744 194.667, 214.691 193.138 C 215.346 192.081, 215.571 190.905, 215.191 190.524 C 214.811 190.144, 214.497 189.533, 214.493 189.167 C 214.482 188.198, 211.689 184.490, 210.384 183.712 C 209.770 183.347, 208.531 183.861, 207.631 184.855 M 370 204 C 370 204.550, 370.702 205, 371.559 205 C 372.416 205, 372.840 204.550, 372.500 204 C 372.160 203.450, 371.459 203, 370.941 203 C 370.423 203, 370 203.450, 370 204 M 61 215.972 C 61 217.328, 62.777 218.170, 63.425 217.121 C 63.735 216.620, 63.316 215.952, 62.494 215.636 C 61.672 215.321, 61 215.472, 61 215.972 M 70.702 261.441 C 69.910 262.233, 68.354 262.644, 67.244 262.353 C 64.864 261.731, 63.290 263.690, 64.887 265.287 C 65.499 265.899, 66 267.408, 66 268.641 C 66 269.874, 66.450 271.160, 67 271.500 C 67.569 271.852, 68 270.991, 68 269.500 C 68 268.060, 68.385 267.120, 68.855 267.410 C 69.997 268.116, 74.221 263.554, 73.288 262.621 C 72.887 262.220, 73.220 261.473, 74.029 260.961 C 75.276 260.172, 75.245 260.028, 73.821 260.015 C 72.898 260.007, 71.495 260.648, 70.702 261.441 M 83.937 304.039 C 82.144 305.147, 82.912 305.832, 86.823 306.615 C 88.636 306.977, 90 306.836, 90 306.286 C 90 304.760, 85.480 303.085, 83.937 304.039 M 91.606 311.416 C 91.941 312.287, 92.653 313, 93.190 313 C 94.505 313, 93.682 310.727, 92.187 310.229 C 91.456 309.985, 91.233 310.443, 91.606 311.416 M 249.333 366.626 C 249.333 367.299, 250.158 367.788, 251.167 367.712 C 252.175 367.637, 253 367.023, 253 366.349 C 253 365.676, 252.175 365.186, 251.167 365.262 C 250.158 365.338, 249.333 365.952, 249.333 366.626" stroke="none" fill="#fffcfc" fill-rule="evenodd"/><path d="" stroke="none" fill="#fcfcfc" fill-rule="evenodd"/>
    </g>
</svg>