<svg xmlns="http://www.w3.org/2000/svg" width="426" height="426" viewBox="0 0 426 426" version="1.1"><path d="M 204.362 16.500 C 204.678 17.325, 204.614 18.040, 204.219 18.088 C 196.275 19.060, 193.918 18.950, 193.392 17.580 C 192.903 16.306, 192.542 16.349, 190.902 17.877 C 188.937 19.707, 186.421 19.996, 184.232 18.644 C 183.444 18.157, 183 18.482, 183 19.548 C 183 20.618, 182.463 21.008, 181.500 20.638 C 180.554 20.275, 180 20.650, 180 21.654 C 180 22.871, 179.685 22.983, 178.658 22.131 C 177.920 21.519, 177.072 21.261, 176.774 21.560 C 176.475 21.858, 175.167 22.226, 173.866 22.379 C 170.133 22.815, 168.001 24.075, 167.985 25.857 C 167.972 27.243, 167.826 27.273, 167.051 26.048 C 166.545 25.249, 166.394 24.171, 166.715 23.653 C 167.050 23.110, 166.173 22.925, 164.649 23.216 C 163.192 23.495, 162 23.285, 162 22.751 C 162 22.216, 161.115 22.841, 160.033 24.139 C 158.633 25.820, 158.048 26.068, 158.001 25 C 157.949 23.787, 157.680 23.838, 156.595 25.267 C 155.858 26.239, 154.634 26.815, 153.877 26.546 C 152.275 25.977, 150.076 27.530, 147.796 30.842 L 146.183 33.183 144.008 31.008 C 142.812 29.812, 141.582 29.085, 141.275 29.392 C 140.968 29.699, 141.793 30.895, 143.108 32.051 L 145.500 34.152 143 33.590 C 141.625 33.280, 140.162 33.021, 139.750 33.014 C 139.338 33.006, 138.997 32.212, 138.993 31.250 C 138.989 29.969, 138.483 30.264, 137.109 32.348 C 135.952 34.103, 135.069 34.706, 134.807 33.921 C 134.573 33.219, 133.845 32.978, 133.188 33.384 C 132.346 33.904, 132.290 34.673, 132.997 35.995 C 134.273 38.379, 134.274 39.287, 133 38.500 C 132.450 38.160, 132 38.385, 132 39 C 132 39.615, 131.512 39.816, 130.915 39.447 C 129.827 38.775, 122.794 41.836, 122.165 43.256 C 121.980 43.672, 121.418 43.758, 120.915 43.447 C 120.412 43.136, 120 43.344, 120 43.910 C 120 44.475, 119.325 44.678, 118.500 44.362 C 117.675 44.045, 117 44.284, 117 44.893 C 117 45.502, 117.505 46, 118.122 46 C 118.898 46, 118.860 46.464, 118 47.500 C 117.315 48.325, 116.167 49, 115.449 49 C 114.731 49, 113.534 49.563, 112.790 50.250 C 109.299 53.477, 106.725 55.382, 107.387 54.250 C 108.642 52.103, 106.839 52.882, 104.360 55.556 C 103.057 56.962, 101.590 57.865, 101.100 57.562 C 100.610 57.259, 99.922 57.760, 99.571 58.676 C 99.220 59.591, 99.446 60.657, 100.073 61.045 C 100.900 61.556, 100.910 61.938, 100.107 62.434 C 99.498 62.810, 99 62.780, 99 62.368 C 99 61.955, 98.339 62.491, 97.532 63.559 C 96.203 65.315, 96.061 65.333, 96.032 63.750 C 95.993 61.624, 94 61.379, 94 63.500 C 94 64.325, 93.325 65, 92.500 65 C 91.675 65, 91 65.450, 91 66 C 91 66.550, 91.450 67, 92 67 C 93.468 67, 93.223 68.994, 91.750 69.032 C 89.928 69.078, 85.332 73.378, 84.583 75.738 C 84.229 76.854, 82.603 79.165, 80.970 80.874 C 79.336 82.583, 78 84.406, 78 84.924 C 78 85.441, 77.093 86.153, 75.985 86.505 C 74.877 86.856, 74.192 87.501, 74.462 87.938 C 74.732 88.375, 74.063 89.538, 72.976 90.521 C 71.889 91.505, 71 93.295, 71 94.500 C 71 96.984, 68.128 100, 65.763 100 C 64.533 100, 64.236 100.941, 64.425 104.250 C 64.627 107.804, 64.199 108.938, 61.808 111.175 C 60.235 112.647, 58.398 114.050, 57.724 114.295 C 56.763 114.643, 56.768 115.193, 57.750 116.856 C 59.456 119.744, 59.330 120.545, 57.007 121.597 C 55.170 122.430, 55.128 122.717, 56.465 125.283 C 57.263 126.814, 57.485 127.799, 56.958 127.474 C 56.431 127.148, 56 127.528, 56 128.319 C 56 129.109, 55.212 130.373, 54.250 131.128 C 52.727 132.322, 52.651 132.306, 53.665 131 C 54.629 129.759, 54.413 129.500, 52.415 129.500 C 49.905 129.500, 49.261 130.425, 51.016 131.510 C 51.575 131.856, 51.774 132.557, 51.457 133.069 C 51.141 133.581, 51.414 134, 52.063 134 C 52.944 134, 52.928 134.382, 52 135.500 C 51.315 136.325, 51.090 137, 51.500 137 C 51.910 137, 51.721 137.631, 51.081 138.403 C 50.190 139.476, 50.208 139.903, 51.158 140.219 C 51.979 140.493, 51.824 140.854, 50.699 141.285 C 49.765 141.644, 49 141.501, 49 140.969 C 49 140.436, 48.512 140, 47.917 140 C 47.321 140, 47.035 140.562, 47.282 141.250 C 47.528 141.938, 47.280 143.400, 46.729 144.500 C 46.179 145.600, 46.069 146.184, 46.484 145.798 C 47.589 144.769, 50.158 147.694, 49.949 149.743 C 49.850 150.709, 49.856 151.725, 49.961 152 C 50.844 154.302, 50.600 156, 49.387 156 C 48.597 156, 47.541 157.078, 47.040 158.395 C 46.539 159.712, 45.557 160.981, 44.857 161.214 C 43.957 161.514, 44.214 162.313, 45.736 163.947 C 47.611 165.959, 47.702 166.441, 46.444 167.699 C 45.650 168.493, 45 169.561, 45 170.071 C 45 171.435, 46.739 171.203, 47.415 169.750 C 47.735 169.063, 47.854 169.939, 47.679 171.697 C 47.505 173.456, 47.730 174.667, 48.181 174.388 C 49.523 173.559, 49.048 176.352, 47.500 178.397 C 46.710 179.441, 46.344 180.748, 46.687 181.302 C 47.066 181.916, 46.798 181.993, 45.997 181.498 C 45.020 180.894, 44.829 181.237, 45.249 182.844 C 45.559 184.030, 45.405 185, 44.906 185 C 44.408 185, 44 185.450, 44 186 C 44 186.550, 44.623 187, 45.383 187 C 47.618 187, 47.948 190.600, 45.876 192.374 C 43.633 194.294, 43.385 196.450, 45.500 195.638 C 47.302 194.947, 47.331 195.179, 45.853 198.423 C 44.982 200.335, 44.992 201.286, 45.895 202.373 C 46.549 203.161, 47.484 205.200, 47.972 206.903 C 48.746 209.603, 48.613 210, 46.930 210 C 45.869 210, 45 210.477, 45 211.059 C 45 211.641, 44.438 211.794, 43.750 211.399 C 43.063 211.003, 42.854 211.068, 43.288 211.544 C 43.721 212.019, 45.071 212.429, 46.288 212.454 C 47.504 212.479, 48.574 212.900, 48.665 213.388 C 48.755 213.877, 49.391 214.623, 50.077 215.047 C 51.040 215.643, 50.961 216.182, 49.734 217.409 C 48.859 218.284, 47.634 219, 47.012 219 C 46.391 219, 46.148 219.430, 46.473 219.956 C 46.798 220.482, 47.706 220.666, 48.490 220.365 C 49.422 220.008, 50.139 220.704, 50.558 222.373 C 50.910 223.779, 52.137 225.226, 53.283 225.590 C 55.254 226.215, 55.214 226.332, 52.545 227.731 C 50.353 228.879, 50.032 229.407, 51.111 230.090 C 52.269 230.823, 52.251 230.977, 51 231.015 C 49.817 231.051, 49.870 231.276, 51.250 232.080 C 52.212 232.641, 53 233.590, 53 234.189 C 53 234.789, 53.788 235.864, 54.750 236.578 C 56.402 237.804, 56.388 237.962, 54.500 239.406 C 53.393 240.253, 53.058 240.951, 53.750 240.968 C 54.438 240.986, 55 241.627, 55 242.393 C 55 243.159, 55.679 244.047, 56.509 244.365 C 57.339 244.684, 57.925 245.294, 57.811 245.722 C 57.327 247.536, 59.207 250.773, 61.437 251.966 C 62.938 252.770, 63.625 253.815, 63.266 254.750 C 62.942 255.593, 63.434 256.663, 64.389 257.198 C 65.537 257.840, 65.890 258.854, 65.478 260.324 C 65.022 261.955, 65.117 262.140, 65.859 261.063 C 66.640 259.930, 67.340 259.863, 69.174 260.746 C 70.798 261.527, 71.009 261.885, 69.872 261.932 C 68.977 261.970, 67.631 262.740, 66.880 263.644 C 65.672 265.100, 65.760 265.211, 67.639 264.614 C 70.260 263.783, 71.645 266.508, 69.767 268.800 C 68.678 270.130, 68.815 270.266, 70.750 269.767 C 71.987 269.448, 73 269.622, 73 270.153 C 73 270.684, 73.405 270.868, 73.900 270.562 C 75.250 269.728, 81 275.170, 81 277.282 C 81 278.292, 81.427 278.854, 81.950 278.531 C 82.472 278.208, 83.395 278.869, 84 280 C 84.605 281.131, 85.531 281.790, 86.057 281.465 C 87.040 280.857, 87.953 282.471, 88.418 285.641 C 88.563 286.629, 89.991 288.178, 91.591 289.082 C 93.576 290.204, 94.424 291.404, 94.262 292.863 C 94.131 294.038, 94.495 295, 95.071 295 C 95.647 295, 95.840 295.450, 95.500 296 C 95.160 296.550, 95.697 297, 96.694 297 C 98.593 297, 104 302.072, 104 303.853 C 104 304.422, 105 305.587, 106.223 306.443 C 107.445 307.299, 107.863 308, 107.151 308 C 106.208 308, 106.281 308.423, 107.421 309.564 C 108.281 310.424, 109.373 310.887, 109.848 310.594 C 110.323 310.301, 110.495 311.190, 110.231 312.570 C 109.833 314.656, 110.279 315.279, 112.876 316.259 C 114.594 316.908, 116 318.015, 116 318.719 C 116 319.424, 116.378 320, 116.839 320 C 118.104 320, 120.122 324.993, 119.358 326.229 C 118.961 326.872, 119.159 327.020, 119.845 326.595 C 120.480 326.203, 121 326.316, 121 326.847 C 121 327.378, 121.818 327.599, 122.817 327.338 C 124.220 326.971, 124.938 327.783, 125.966 330.898 C 126.699 333.118, 127.677 334.699, 128.141 334.413 C 129.124 333.805, 134 338.416, 134 339.955 C 134 340.530, 134.338 340.887, 134.750 340.750 C 136.276 340.241, 140.155 345.153, 139.524 346.797 C 139.178 347.700, 139.210 348.123, 139.596 347.738 C 139.981 347.352, 141.018 347.856, 141.898 348.858 C 142.779 349.860, 144.850 351.033, 146.500 351.463 C 148.150 351.894, 148.938 352.454, 148.250 352.707 C 147.563 352.960, 147 353.526, 147 353.965 C 147 355.562, 153.263 360.836, 154.567 360.336 C 155.304 360.053, 156.928 360.537, 158.176 361.411 C 159.424 362.285, 160.104 363, 159.687 363 C 159.271 363, 159.411 363.900, 160 365 C 160.854 366.596, 160.760 367, 159.535 367 C 157.550 367, 157.599 367.599, 159.761 369.761 C 160.730 370.730, 162.346 371.364, 163.353 371.171 C 164.359 370.977, 166.059 371.759, 167.130 372.909 C 168.201 374.059, 169.559 375, 170.146 375 C 170.733 375, 170.936 375.725, 170.596 376.611 C 170.180 377.696, 170.413 378.055, 171.310 377.711 C 172.913 377.096, 174.492 379.410, 175.452 383.783 C 175.841 385.552, 176.710 387, 177.383 387 C 178.056 387, 180.833 388.116, 183.554 389.481 C 188.061 391.742, 191 395.298, 191 398.493 C 191 399.094, 192.426 400.017, 194.168 400.543 C 196.418 401.223, 197.439 402.209, 197.692 403.948 C 198.313 408.216, 203.794 411.760, 205.502 408.997 C 205.865 408.409, 206.819 408.340, 207.811 408.830 C 208.740 409.290, 211.412 409.617, 213.750 409.556 C 216.088 409.496, 218 409.851, 218 410.346 C 218 410.840, 218.675 410.685, 219.500 410 C 220.534 409.142, 221 409.104, 221 409.876 C 221 410.569, 222.525 410.876, 225 410.680 C 227.365 410.493, 229.003 410.800, 229.006 411.432 C 229.010 412.019, 229.685 411.211, 230.506 409.636 C 231.328 408.060, 232 406.148, 232 405.386 C 232 404.624, 232.348 404, 232.773 404 C 233.198 404, 234.376 402.457, 235.391 400.572 C 237.217 397.182, 241.988 394.257, 243.833 395.397 C 244.357 395.721, 245.068 394.864, 245.412 393.493 C 245.757 392.122, 246.480 391, 247.019 391 C 247.559 391, 248 390.178, 248 389.174 C 248 387.298, 251.884 383, 253.579 383 C 254.101 383, 255.308 381.200, 256.261 379 C 257.214 376.800, 258.630 375, 259.408 375 C 260.186 375, 261.983 373.621, 263.401 371.935 C 264.934 370.114, 266.459 369.166, 267.160 369.599 C 267.954 370.090, 268.134 369.793, 267.712 368.691 C 267.310 367.643, 267.876 366.500, 269.287 365.512 C 270.985 364.322, 271.586 364.259, 271.912 365.234 C 272.145 365.930, 273.047 364.260, 273.917 361.523 C 274.938 358.314, 276.322 356.138, 277.813 355.399 C 279.085 354.769, 280.098 353.858, 280.063 353.376 C 280.028 352.894, 280.337 352.493, 280.750 352.485 C 282.577 352.447, 284 350.692, 284 348.476 C 284 347.094, 284.851 345.615, 286 345 C 287.274 344.318, 288 342.906, 288 341.111 C 288 339.490, 289.063 337.145, 290.500 335.595 C 291.875 334.111, 293 332.470, 293 331.948 C 293 331.427, 293.468 331, 294.040 331 C 294.613 331, 296.370 330.047, 297.945 328.882 C 299.593 327.664, 301.334 327.088, 302.043 327.527 C 302.980 328.106, 303.109 327.393, 302.578 324.567 C 301.977 321.363, 302.160 320.771, 303.887 320.319 C 304.990 320.031, 306.073 319.053, 306.294 318.147 C 306.605 316.871, 306.940 317.063, 307.784 319 C 308.383 320.375, 308.902 320.938, 308.937 320.250 C 308.971 319.563, 309.725 319, 310.611 319 C 311.903 319, 312.096 318.324, 311.582 315.586 C 311 312.483, 311.132 312.222, 313.030 312.718 C 314.561 313.118, 315.262 312.713, 315.658 311.201 C 316.016 309.831, 316.723 309.340, 317.763 309.739 C 318.795 310.135, 319.082 309.942, 318.605 309.170 C 318.171 308.468, 318.505 308, 319.441 308 C 320.298 308, 321 307.550, 321 307 C 321 306.450, 320.325 306, 319.500 306 C 318.675 306, 318 305.523, 318 304.941 C 318 304.359, 318.424 304.144, 318.942 304.464 C 319.460 304.784, 320.656 303.419, 321.600 301.430 C 323.051 298.374, 323.462 298.074, 324.255 299.491 C 325.098 300.998, 325.357 300.935, 326.803 298.870 C 327.689 297.606, 328.291 295.153, 328.141 293.418 C 327.882 290.414, 329.943 288.229, 331.896 289.436 C 332.585 289.862, 335.205 285.364, 336.372 281.750 C 336.972 279.892, 339 279.313, 339 281 C 339 281.550, 339.450 282, 340 282 C 341.470 282, 341.218 280.361, 339.482 278.625 C 338.124 277.267, 338.279 276.783, 340.948 274.053 C 342.590 272.374, 344.205 271, 344.538 271 C 345.718 271, 348 268.120, 348 266.630 C 348 265.799, 348.489 264.816, 349.087 264.446 C 349.685 264.077, 349.945 262.899, 349.666 261.830 C 349.266 260.301, 349.442 260.122, 350.489 260.991 C 351.500 261.830, 352.163 261.605, 353.250 260.054 C 354.036 258.931, 354.931 258.264, 355.238 258.571 C 355.545 258.878, 355.824 257.863, 355.857 256.315 C 355.975 250.760, 356.166 250.190, 358.074 249.691 C 359.326 249.363, 359.798 248.638, 359.413 247.634 C 359.001 246.561, 359.584 245.891, 361.308 245.459 C 363.758 244.844, 364.162 243.649, 362.706 241.319 C 361.844 239.940, 363.538 238.597, 365 239.500 C 365.550 239.840, 366 239.664, 366 239.109 C 366 238.554, 365.310 237.713, 364.467 237.241 C 363.131 236.494, 363.195 236.081, 364.967 234.039 C 366.085 232.749, 367 231.313, 367 230.847 C 367 230.381, 367.702 230, 368.559 230 C 369.416 230, 369.824 229.524, 369.465 228.943 C 368.298 227.054, 368.245 223, 369.388 222.985 C 369.999 222.976, 369.829 222.545, 369.008 222.026 C 367.927 221.342, 367.818 220.782, 368.613 219.987 C 369.225 219.375, 369.541 216.757, 369.328 214.063 C 369.052 210.558, 369.335 209.086, 370.360 208.692 C 371.559 208.232, 371.576 207.307, 370.476 202.575 C 369.511 198.423, 369.476 196.996, 370.340 196.985 C 370.994 196.976, 370.845 196.546, 370 196 C 368.964 195.330, 368.894 195.026, 369.773 195.015 C 370.715 195.004, 370.628 194.363, 369.440 192.549 C 368.452 191.041, 368.097 189.270, 368.517 187.946 C 368.893 186.763, 369.197 184.153, 369.194 182.147 C 369.191 180.141, 369.694 177.825, 370.311 177 C 370.929 176.175, 371.058 175.816, 370.598 176.202 C 369.663 176.988, 367 174.707, 367 173.121 C 367 172.559, 367.724 171.694, 368.609 171.199 C 370.089 170.371, 370.089 170.248, 368.609 169.680 C 367.724 169.341, 367 168.122, 367 166.972 C 367 165.823, 366.613 165.121, 366.141 165.413 C 365.147 166.027, 365.459 161.684, 366.534 159.945 C 366.931 159.302, 366.674 158.416, 365.961 157.976 C 365.249 157.536, 364.667 155.784, 364.667 154.084 C 364.667 151.078, 364.611 151.041, 362.688 152.746 C 360.766 154.449, 360.743 154.435, 361.890 152.250 C 362.723 150.662, 362.767 149.433, 362.039 148.072 C 361.471 147.012, 361.279 145.437, 361.611 144.572 C 361.950 143.687, 361.696 143, 361.028 143 C 360.217 143, 360.060 142.002, 360.533 139.850 C 361.129 137.137, 360.986 136.791, 359.501 137.361 C 358.259 137.838, 357.932 137.619, 358.332 136.576 C 358.638 135.780, 358.350 134.932, 357.694 134.690 C 356.918 134.405, 357.287 133.494, 358.750 132.087 C 359.987 130.896, 361 129.640, 361 129.294 C 361 128.949, 360.719 128.948, 360.376 129.291 C 360.033 129.634, 358.947 128.922, 357.963 127.707 C 356.583 126.005, 356.432 125.157, 357.304 124 C 357.925 123.175, 358.039 122.835, 357.557 123.244 C 357.074 123.653, 356.017 123.041, 355.207 121.885 C 354.076 120.271, 354.017 119.608, 354.951 119.030 C 355.848 118.476, 355.751 118.118, 354.584 117.671 C 353.713 117.336, 353 116.374, 353 115.531 C 353 114.689, 352.550 114, 352 114 C 351.450 114, 351.071 113.663, 351.159 113.250 C 351.526 111.516, 349.727 109.168, 348.417 109.670 C 347.557 110, 347 109.583, 347 108.607 C 347 107.723, 346.550 107, 346 107 C 345.450 107, 345 106.564, 345 106.031 C 345 105.499, 345.727 105.342, 346.616 105.683 C 347.948 106.194, 348.051 105.964, 347.201 104.376 C 346.529 103.119, 346.505 101.848, 347.134 100.724 C 348.212 98.798, 348.257 98.860, 345.500 98.440 C 344.400 98.272, 342.150 97.710, 340.500 97.190 C 338.043 96.417, 337.814 96.116, 339.232 95.523 C 340.591 94.956, 340.742 94.387, 339.935 92.879 C 339.370 91.823, 339.210 90.470, 339.579 89.872 C 340.024 89.152, 339.535 89.013, 338.125 89.460 C 336.620 89.938, 336 89.708, 336 88.674 C 336 87.871, 335.325 86.955, 334.500 86.638 C 333.675 86.322, 333 85.443, 333 84.684 C 333 82.920, 329.495 78.838, 328.680 79.653 C 328.340 79.993, 328.248 79.310, 328.474 78.135 C 328.866 76.099, 326.721 75.009, 325.747 76.750 C 325.517 77.162, 325.465 76.938, 325.633 76.250 C 325.800 75.563, 325.449 75, 324.852 75 C 324.255 75, 323.994 74.129, 324.273 73.065 C 324.573 71.918, 324.187 70.902, 323.326 70.572 C 322.527 70.265, 322.153 69.561, 322.496 69.007 C 322.838 68.453, 322.218 68, 321.118 68 C 320.018 68, 318.826 67.528, 318.470 66.951 C 318.025 66.231, 317.393 66.258, 316.452 67.040 C 315.367 67.940, 314.950 67.651, 314.447 65.645 C 314.098 64.253, 314.106 62.638, 314.465 62.057 C 314.824 61.476, 314.673 61, 314.129 61 C 313.584 61, 312.944 62.013, 312.706 63.250 C 312.317 65.269, 312.258 65.230, 312.136 62.875 C 312.027 60.766, 311.500 60.250, 309.458 60.250 C 308.060 60.250, 306.700 60.033, 306.435 59.768 C 305.612 58.945, 307.158 55.979, 308.105 56.565 C 309.508 57.432, 309.153 56.010, 307.571 54.429 C 306.333 53.190, 305.943 53.200, 304.643 54.500 C 302.069 57.074, 300.270 56.099, 300.953 52.500 C 301.057 51.950, 300.571 52.063, 299.871 52.750 C 298.414 54.183, 296.606 54.446, 297.435 53.105 C 297.740 52.612, 297.324 51.954, 296.511 51.643 C 295.618 51.300, 295.285 50.422, 295.668 49.422 C 296.181 48.086, 295.879 47.904, 294.093 48.470 C 292.530 48.966, 291.388 48.604, 290.192 47.232 C 289.261 46.164, 287.150 45.028, 285.500 44.706 C 278.535 43.348, 276.456 42.633, 275.689 41.333 C 275.242 40.577, 274.455 40.219, 273.939 40.538 C 273.422 40.857, 273 40.416, 273 39.559 C 273 38.702, 273.563 37.959, 274.250 37.910 C 274.938 37.860, 274.021 37.393, 272.214 36.872 C 270.407 36.351, 269.193 35.497, 269.516 34.974 C 269.853 34.430, 269.370 34.305, 268.388 34.681 C 267.123 35.167, 266.890 34.987, 267.500 34 C 268.092 33.043, 267.889 32.829, 266.788 33.251 C 265.942 33.576, 264.103 33.247, 262.702 32.520 C 261.301 31.794, 258.591 31.410, 256.680 31.667 C 254.130 32.011, 252.711 31.625, 251.352 30.217 C 249.160 27.945, 243.210 25.752, 241.728 26.668 C 241.072 27.074, 240.894 26.513, 241.249 25.156 C 241.804 23.033, 239.741 21.991, 238.609 23.823 C 237.510 25.603, 231.276 24.146, 226.693 21.040 C 224.049 19.247, 221.575 18.092, 221.194 18.472 C 220.814 18.852, 221.376 19.802, 222.443 20.582 C 223.989 21.712, 224.064 22, 222.814 22 C 221.951 22, 220.668 21.305, 219.962 20.454 C 219.257 19.604, 218.077 19.140, 217.340 19.423 C 216.603 19.706, 216 19.576, 216 19.135 C 216 18.694, 215.325 18.333, 214.500 18.333 C 213.675 18.333, 213 18.761, 213 19.283 C 213 19.806, 211.864 20.016, 210.476 19.751 C 209.088 19.485, 207.711 19.658, 207.417 20.134 C 207.123 20.610, 206.346 20.993, 205.691 20.985 C 204.788 20.973, 204.793 20.783, 205.712 20.199 C 207.086 19.326, 206.308 15, 204.776 15 C 204.232 15, 204.045 15.675, 204.362 16.500 M 157 49.678 C 157 50.185, 157.450 51.140, 158 51.800 C 158.727 52.673, 158.673 52.727, 157.800 52 C 157.140 51.450, 156.240 51, 155.800 51 C 154.525 51, 154.874 53.651, 156.307 54.840 C 157.307 55.670, 158.047 55.171, 159.462 52.712 C 160.479 50.945, 160.945 49.834, 160.498 50.241 C 160.050 50.649, 159.080 50.481, 158.342 49.869 C 157.604 49.256, 157 49.170, 157 49.678 M 284.015 71.750 C 284.052 73.528, 285.762 75.194, 286.434 74.107 C 286.810 73.498, 286.840 72.550, 286.500 72 C 285.779 70.834, 283.993 70.654, 284.015 71.750 M 293.134 82.156 C 292.062 83.874, 292.146 84.394, 293.684 85.560 C 294.683 86.317, 295.950 86.968, 296.500 87.006 C 297.050 87.044, 299.300 87.274, 301.500 87.518 L 305.500 87.960 300.750 85.855 C 298.137 84.697, 296 83.158, 296 82.434 C 296 80.184, 294.460 80.034, 293.134 82.156 M 103.257 89 C 103.870 91.250, 107.003 91.522, 106.985 89.323 C 106.972 87.777, 106.820 87.728, 105.985 89 C 105.109 90.333, 104.880 90.333, 103.924 89 C 102.967 87.667, 102.893 87.667, 103.257 89 M 215 93.940 C 215 94.662, 214.349 94.964, 213.500 94.638 C 212.675 94.322, 212 94.499, 212 95.031 C 212 95.564, 212.648 96, 213.441 96 C 215.071 96, 216.511 94.178, 215.600 93.267 C 215.270 92.937, 215 93.240, 215 93.940 M 209.250 95.141 C 208.563 95.834, 208 97.183, 208 98.141 C 208 99.099, 207.550 100.160, 207 100.500 C 206.450 100.840, 206 101.475, 206 101.911 C 206 102.906, 214.892 98.774, 214.954 97.750 C 214.979 97.338, 214.133 97, 213.073 97 C 212.014 97, 211.001 96.299, 210.823 95.441 C 210.564 94.190, 210.254 94.131, 209.250 95.141 M 196 121.566 C 196 121.877, 196.466 123.002, 197.035 124.066 C 198.387 126.592, 196.809 126.551, 194.500 124 C 192.582 121.880, 187 121.223, 187 123.117 C 187 123.741, 186.118 124.003, 185 123.710 C 183.700 123.370, 183 123.680, 183 124.594 C 183 125.367, 182.100 126, 181 126 C 179.900 126, 179 126.398, 179 126.883 C 179 128.378, 174.876 128.939, 172.910 127.712 C 171.485 126.822, 170.764 126.836, 169.825 127.775 C 168.858 128.742, 168.866 129, 169.859 129 C 170.551 129, 170.835 129.457, 170.490 130.016 C 170.144 130.575, 169.473 130.792, 168.998 130.499 C 167.444 129.538, 161.699 133.503, 161.352 135.776 C 161.167 136.991, 159.211 139.789, 157.007 141.993 C 153.348 145.652, 152.120 148.880, 153.009 152.500 C 153.594 154.882, 152.691 158.709, 151.190 160.210 C 150.535 160.865, 150 162.226, 150 163.235 C 150 164.245, 149.306 166.129, 148.459 167.423 C 147.063 169.553, 147.071 169.928, 148.550 171.407 C 149.986 172.843, 150.659 174.518, 150.923 177.309 C 150.966 177.754, 151.444 177.844, 151.987 177.508 C 152.616 177.119, 152.665 177.732, 152.122 179.199 C 151.654 180.465, 150.797 181.500, 150.219 181.500 C 149.640 181.500, 148.829 181.838, 148.417 182.250 C 148.004 182.662, 148.240 183, 148.942 183 C 149.802 183, 150.013 183.812, 149.589 185.500 C 149.110 187.410, 149.351 188, 150.613 188 C 151.969 188, 152.165 188.734, 151.710 192.123 C 151.048 197.060, 151.658 199.068, 153.594 198.326 C 154.625 197.930, 154.835 198.266, 154.349 199.533 C 153.913 200.669, 154.329 201.768, 155.529 202.645 C 157.292 203.934, 157.274 204, 155.152 204 C 153.293 204, 153.136 204.233, 154.211 205.400 C 155.191 206.464, 155.834 206.526, 156.894 205.658 C 158.037 204.722, 158.160 204.920, 157.577 206.758 C 157.079 208.327, 157.272 209, 158.220 209 C 158.965 209, 159.648 209.972, 159.737 211.160 C 159.827 212.348, 160.485 213.691, 161.200 214.145 C 162.160 214.754, 162.027 214.973, 160.691 214.985 C 159.696 214.993, 159.165 215.457, 159.510 216.016 C 159.856 216.575, 160.515 216.800, 160.976 216.515 C 161.437 216.230, 161.578 216.898, 161.290 217.999 C 160.997 219.118, 161.259 220, 161.883 220 C 162.498 220, 163 220.661, 163 221.469 C 163 222.363, 163.586 222.712, 164.500 222.362 C 165.851 221.843, 166.549 223.520, 166.118 226.250 C 166.053 226.662, 166.451 226.887, 167.002 226.750 C 167.553 226.612, 168.576 227.625, 169.275 229 C 170.070 230.564, 171.569 231.619, 173.275 231.817 C 175.667 232.094, 175.924 232.454, 175.355 234.722 C 174.783 237.002, 174.961 237.243, 176.853 236.749 C 178.252 236.383, 179 236.649, 179 237.514 C 179 238.244, 180.350 239.138, 182 239.500 C 183.650 239.862, 185 240.628, 185 241.202 C 185 241.796, 185.727 241.654, 186.687 240.872 C 188.137 239.694, 188.295 239.712, 187.813 241.004 C 187.367 242.199, 188.306 242.573, 192.369 242.820 C 195.184 242.991, 198.200 243.776, 199.072 244.565 C 201.214 246.504, 203.642 246.374, 204.447 244.278 C 204.824 243.296, 205.407 242.974, 205.804 243.528 C 207.544 245.957, 214.767 246.233, 217.042 243.958 C 219.422 241.578, 220.616 241.491, 221.804 243.614 C 222.423 244.720, 223.387 245.012, 224.868 244.542 C 226.057 244.165, 226.771 243.439, 226.456 242.930 C 226.141 242.420, 226.906 242.115, 228.155 242.251 C 229.967 242.450, 230.539 241.894, 230.984 239.500 C 231.352 237.523, 231.811 236.926, 232.330 237.750 C 232.764 238.438, 234.168 239, 235.452 239 C 237.865 239, 239.499 236.616, 238.354 234.764 C 237.927 234.073, 238.577 233.928, 240.236 234.344 C 243.111 235.066, 245.577 232.945, 244.656 230.545 C 244.343 229.730, 244.518 228.798, 245.044 228.473 C 245.570 228.148, 246 227.009, 246 225.941 C 246 224.843, 246.683 224, 247.571 224 C 249.932 224, 252 221.465, 252 218.571 C 252 217.157, 252.450 216, 253 216 C 253.550 216, 254 216.450, 254 217 C 254 217.550, 254.393 218, 254.873 218 C 255.353 218, 255.787 215.959, 255.837 213.464 C 255.928 208.975, 257.638 206, 260.129 206 C 261.109 206, 261.129 205.729, 260.214 204.814 C 259.299 203.899, 259.382 203.235, 260.578 201.913 C 261.899 200.454, 261.923 200.007, 260.741 198.903 C 259.977 198.189, 259.555 196.548, 259.802 195.255 C 260.085 193.774, 259.609 192.435, 258.515 191.634 C 256.906 190.458, 256.899 190.244, 258.417 188.726 C 259.451 187.692, 259.875 186.097, 259.568 184.402 C 259.300 182.925, 259.544 180.852, 260.110 179.795 C 260.841 178.429, 260.794 177.456, 259.947 176.436 C 259.291 175.646, 259.046 175, 259.401 175 C 259.756 175, 259.322 173.895, 258.437 172.544 C 257.552 171.193, 257.077 169.684, 257.382 169.191 C 257.893 168.365, 257.303 166.041, 254.734 158.763 C 254.203 157.257, 253.370 156.271, 252.884 156.572 C 252.398 156.872, 252 156.368, 252 155.452 C 252 154.448, 251.453 153.996, 250.623 154.314 C 249.533 154.733, 249.407 154.129, 250.018 151.421 C 250.451 149.501, 250.397 148, 249.895 148 C 249.403 148, 249 147.190, 249 146.200 C 249 143.886, 247.127 142.014, 245.455 142.656 C 243.851 143.271, 241.797 139.693, 242.581 137.649 C 243.393 135.532, 239.098 133.259, 237.854 135.147 C 237.128 136.248, 236.712 136.174, 235.621 134.750 C 234.883 133.787, 233.654 132.993, 232.890 132.985 C 231.720 132.972, 231.723 132.828, 232.912 132.075 C 234.127 131.306, 234.126 130.983, 232.902 129.759 C 232.120 128.977, 230.278 128.036, 228.808 127.667 C 226.676 127.132, 226.008 127.401, 225.501 128.998 C 225.151 130.099, 224.472 131, 223.992 131 C 222.307 131, 221.841 128.896, 223.164 127.264 C 224.012 126.218, 224.062 125.879, 223.300 126.336 C 222.593 126.760, 221.649 126.212, 221 125 C 220.395 123.869, 219.432 123.233, 218.859 123.587 C 218.287 123.941, 215.497 124.341, 212.660 124.476 C 209.822 124.611, 206.772 125.035, 205.881 125.418 C 204.726 125.914, 204.067 125.452, 203.580 123.807 L 202.898 121.500 201.981 123.750 C 201.477 124.987, 200.573 126, 199.973 126 C 199.373 126, 199.162 125.547, 199.505 124.992 C 199.847 124.438, 199.456 123.313, 198.635 122.492 C 197.100 120.957, 196 120.570, 196 121.566 M 226.697 129.393 C 226.288 130.434, 226.189 131.522, 226.476 131.810 C 227.389 132.722, 228.191 131.227, 227.809 129.328 C 227.459 127.588, 227.405 127.591, 226.697 129.393 M 275.008 146.974 C 273.842 147.711, 273.780 148.180, 274.726 149.126 C 275.671 150.071, 276.074 149.972, 276.572 148.673 C 276.923 147.759, 277.682 147.303, 278.259 147.660 C 278.872 148.039, 279.012 147.829, 278.595 147.155 C 277.737 145.765, 276.980 145.727, 275.008 146.974 M 72.500 159 C 72.840 159.550, 72.304 160.007, 71.309 160.015 C 69.772 160.028, 69.726 160.179, 71 161.015 C 71.941 161.633, 72.127 162.280, 71.500 162.750 C 70.950 163.162, 70.368 164.287, 70.207 165.248 C 69.977 166.617, 70.466 166.443, 72.465 164.444 C 73.868 163.041, 75.463 162.168, 76.008 162.505 C 76.554 162.842, 77 162.240, 77 161.166 C 77 160.092, 76.288 158.941, 75.418 158.607 C 73.061 157.702, 71.803 157.872, 72.500 159 M 123.278 174.250 C 122.746 174.938, 122.039 176.265, 121.706 177.199 C 121.256 178.465, 121.513 178.740, 122.715 178.279 C 123.789 177.867, 124.087 178.051, 123.605 178.830 C 123.207 179.474, 123.306 180, 123.823 180 C 124.341 180, 124.722 178.425, 124.671 176.500 C 124.565 172.530, 124.585 172.561, 123.278 174.250 M 284.222 186.016 C 282.644 188.544, 283.628 193.080, 285.592 192.326 C 287.071 191.759, 287.338 188.708, 286.168 185.754 C 285.530 184.144, 285.379 184.164, 284.222 186.016 M 126.658 202.450 C 126.311 203.354, 126.761 203.614, 128.075 203.270 C 130.373 202.669, 130.461 202.391, 128.583 201.670 C 127.803 201.371, 126.937 201.722, 126.658 202.450 M 125.750 205.220 C 124.237 205.741, 123 206.606, 123 207.142 C 123 207.679, 122.603 207.873, 122.118 207.573 C 121.110 206.950, 116 210.683, 116 212.041 C 116 213.101, 118.872 212.204, 121 210.481 C 121.825 209.813, 123.551 209.359, 124.836 209.472 C 126.506 209.620, 127.440 208.972, 128.114 207.201 C 129.276 204.143, 129.161 204.046, 125.750 205.220 M 338.690 205.452 C 337.892 206.251, 336.960 206.626, 336.619 206.286 C 336.279 205.945, 336 206.117, 336 206.667 C 336 208.485, 337.190 208.898, 339.062 207.729 C 341.881 205.969, 342.600 207.694, 339.943 209.845 L 337.604 211.739 339.816 212.442 C 341.033 212.828, 341.771 213.562, 341.456 214.072 C 341.140 214.582, 341.332 215, 341.882 215 C 343.301 215, 343.963 213.649, 344.415 209.829 C 345.030 204.632, 341.902 202.241, 338.690 205.452 M 137.484 229.025 C 137.200 229.485, 137.443 230.156, 138.024 230.515 C 138.606 230.874, 138.848 231.918, 138.564 232.834 C 137.933 234.862, 138.971 236.679, 141.030 237.150 C 142.771 237.549, 143.003 237.088, 142.992 233.250 C 142.987 231.299, 142.260 230.164, 140.493 229.344 C 139.123 228.709, 137.769 228.565, 137.484 229.025 M 135.257 234.763 C 135.350 235.993, 135.780 237, 136.213 237 C 137.256 237, 137.185 235.841, 136.029 234.013 C 135.290 232.844, 135.125 233.004, 135.257 234.763 M 154.537 252.606 C 153.297 253.846, 153.195 254.530, 154.088 255.606 C 155.398 257.185, 157.444 257.528, 156.507 256.011 C 156.157 255.445, 156.558 255.277, 157.448 255.618 C 158.606 256.063, 159 255.552, 159 253.607 C 159 250.617, 156.979 250.163, 154.537 252.606 M 209.427 269.908 C 208.745 270.587, 211.155 273, 212.515 273 C 213.545 273, 215 270.964, 215 269.524 C 215 269.072, 209.915 269.423, 209.427 269.908 M 173 340.559 C 173 341.416, 173.450 341.840, 174 341.500 C 174.550 341.160, 175 340.459, 175 339.941 C 175 339.423, 174.550 339, 174 339 C 173.450 339, 173 339.702, 173 340.559 M 198.666 363.250 C 197.358 365.116, 196.923 365.255, 196.120 364.064 C 195.321 362.879, 194.879 362.855, 193.587 363.928 C 191.533 365.633, 192.402 366.889, 195.408 366.560 C 198.132 366.260, 203.261 362.594, 202.299 361.633 C 201.198 360.531, 200.289 360.935, 198.666 363.250 M 224.753 374.445 C 219.897 376.978, 219.790 377.123, 221.690 378.564 C 223.194 379.705, 223.237 379.942, 221.941 379.968 C 218.614 380.036, 216.962 382.311, 217.923 385.500 C 218.768 388.302, 218.941 388.094, 219.375 383.750 C 219.444 383.063, 220.155 382.500, 220.955 382.500 C 222.552 382.500, 225.796 379.468, 227.750 376.150 C 229.887 372.521, 229.196 372.128, 224.753 374.445 M 213 382.378 C 213 384.344, 215.646 386.381, 216.470 385.049 C 216.826 384.472, 216.641 384, 216.059 384 C 215.477 384, 215 383.325, 215 382.500 C 215 381.675, 214.550 381, 214 381 C 213.450 381, 213 381.620, 213 382.378" stroke="none" fill="#fffcfc" fill-rule="evenodd"/><path d="" stroke="none" fill="#fcfcfc" fill-rule="evenodd"/></svg>